<?xml version="1.0" standalone="no"?>
<!DOCTYPE svg PUBLIC "-//W3C//DTD SVG 20010904//EN"
 "http://www.w3.org/TR/2001/REC-SVG-20010904/DTD/svg10.dtd">
<svg version="1.0" xmlns="http://www.w3.org/2000/svg"
 width="5367.000000pt" height="2042.000000pt" viewBox="0 0 5367.000000 2042.000000"
 preserveAspectRatio="xMidYMid meet">

<g transform="translate(0.000000,2042.000000) scale(0.100000,-0.100000)"
fill="#000000" stroke="none">
<path d="M25012 20282 c-34 -10 -89 -69 -103 -109 -28 -87 14 -194 90 -229
l40 -19 1 -797 0 -797 -97 -105 c-203 -217 -362 -444 -403 -571 -8 -26 -39
-68 -89 -120 -152 -158 -242 -310 -338 -575 -72 -197 -97 -391 -72 -555 7 -50
14 -93 14 -96 0 -4 -41 -34 -91 -67 -156 -105 -356 -298 -429 -416 -11 -18
-43 -67 -72 -109 -126 -188 -252 -485 -317 -749 -56 -229 -69 -341 -72 -645
l-2 -283 -98 -82 c-53 -46 -111 -94 -128 -108 -96 -76 -589 -490 -631 -530
l-50 -48 -125 -5 c-140 -7 -310 -42 -398 -82 -150 -69 -331 -202 -452 -333
-89 -96 -218 -287 -255 -378 -32 -80 -70 -239 -86 -363 -15 -115 -5 -256 30
-417 42 -188 86 -285 205 -453 201 -284 461 -455 769 -507 l107 -18 0 -646 0
-645 -178 -1 c-187 -1 -243 -7 -492 -55 -191 -37 -295 -72 -475 -159 -256
-124 -425 -244 -631 -447 -222 -218 -332 -370 -477 -658 -73 -145 -110 -254
-151 -444 -59 -271 -61 -288 -60 -561 0 -273 -1 -262 74 -613 52 -245 229
-590 433 -842 144 -178 414 -413 592 -517 41 -24 74 -45 75 -48 0 -5 -405
-252 -458 -279 -15 -7 -155 -90 -311 -184 -235 -140 -287 -168 -300 -158 -60
44 -123 51 -186 22 -108 -49 -147 -185 -80 -282 31 -44 63 -60 135 -66 118
-10 190 52 198 170 l4 62 247 148 c136 81 289 175 339 208 51 33 104 64 119
70 14 5 108 59 209 119 100 61 187 110 193 110 6 0 44 -16 84 -36 97 -48 306
-117 451 -149 144 -32 285 -44 511 -45 l170 -1 85 -110 c47 -61 106 -138 133
-172 26 -34 105 -120 175 -190 l127 -128 -28 -22 c-56 -44 -223 -191 -268
-236 -25 -25 -77 -75 -117 -110 -40 -35 -72 -67 -72 -71 0 -4 41 -59 90 -121
210 -264 625 -779 676 -839 31 -36 71 -87 89 -115 18 -27 110 -144 204 -260
208 -255 410 -509 551 -689 57 -74 122 -155 145 -179 22 -25 110 -133 195
-240 85 -108 157 -196 160 -197 4 0 -36 204 -87 453 -107 523 -219 1069 -297
1446 l-54 264 61 -69 c104 -118 277 -276 387 -353 43 -30 243 -164 247 -166 1
-1 23 -68 49 -151 25 -82 49 -152 53 -156 4 -4 56 22 116 59 61 36 115 66 120
66 6 0 51 -18 100 -40 50 -22 116 -49 148 -59 l57 -18 0 -923 c0 -871 -1 -924
-17 -930 -37 -13 -84 -56 -104 -95 -30 -59 -23 -142 15 -193 47 -62 80 -77
162 -73 60 3 77 8 109 32 107 82 93 256 -25 316 l-40 20 0 905 c0 498 3 905 8
905 4 0 38 -9 76 -20 79 -22 286 -64 396 -80 382 -53 878 -18 1265 92 374 105
652 230 978 440 170 109 204 136 325 253 272 262 484 579 579 865 57 174 123
513 123 637 0 34 22 57 443 472 243 239 498 490 565 556 68 66 169 169 225
229 85 91 93 103 51 70 -174 -133 -531 -397 -594 -439 -41 -27 -90 -63 -109
-80 -40 -35 -604 -455 -611 -455 -3 0 -18 98 -33 217 -30 229 -61 430 -103
650 l-25 133 37 52 c35 52 36 55 31 123 -11 137 -78 328 -142 403 -42 50 -79
65 -140 58 -62 -7 -71 -1 -114 77 -18 33 -45 77 -62 99 -34 48 -36 63 -9 103
11 17 20 43 20 59 0 42 -53 133 -125 216 -74 83 -96 101 -138 109 l-30 6 54
45 c58 47 104 109 125 169 10 26 13 120 14 353 l0 318 26 -10 c30 -12 44 -6
44 20 0 12 -12 23 -35 31 l-35 13 0 137 0 138 83 -39 c188 -86 515 -190 725
-229 475 -89 946 -76 1411 40 353 88 792 286 1031 464 30 23 75 53 100 67 104
61 380 304 481 424 35 42 81 97 103 123 21 25 57 67 79 92 191 223 465 726
521 958 8 31 30 112 50 181 86 295 119 534 120 875 1 274 -9 383 -55 623 l-30
153 70 77 c127 141 285 288 345 322 33 19 81 45 108 59 26 14 148 87 270 162
l223 135 32 -22 c72 -48 159 -38 223 26 117 117 43 320 -117 320 -117 0 -182
-62 -193 -184 l-5 -60 -182 -110 c-100 -61 -242 -148 -316 -193 -73 -45 -145
-86 -158 -92 -14 -5 -108 -59 -209 -120 l-183 -111 -216 -55 c-119 -31 -225
-58 -236 -62 -31 -8 80 102 150 150 33 22 96 75 140 118 98 94 159 129 228
129 64 0 125 29 155 74 13 19 43 79 66 133 l42 98 45 5 c24 3 54 11 65 18 21
11 84 97 84 113 0 5 24 24 54 43 29 18 64 51 77 72 31 52 45 61 109 74 123 25
156 39 198 84 42 46 76 105 108 191 10 28 35 77 55 111 48 79 124 232 133 266
29 121 -145 33 -243 -124 -51 -80 -101 -116 -236 -164 -182 -65 -221 -92 -305
-214 -82 -120 -105 -139 -261 -208 -36 -16 -88 -50 -117 -75 -28 -25 -62 -52
-74 -58 -19 -11 -168 -30 -168 -22 0 1 24 14 53 29 28 14 90 50 137 79 47 28
105 63 130 78 76 43 127 94 168 170 56 101 122 188 215 285 90 91 134 150 203
265 44 73 49 78 78 75 29 -3 31 -6 37 -51 5 -47 19 -67 49 -67 23 0 127 52
209 104 40 26 97 59 127 74 53 25 53 26 74 7 16 -14 41 -21 91 -23 183 -11
414 140 512 333 37 73 41 87 41 160 1 62 -2 80 -13 80 -8 0 -19 -21 -27 -53
-26 -101 -143 -240 -220 -261 -91 -25 -212 -34 -379 -27 -217 9 -420 29 -418
42 1 5 8 44 17 87 9 42 25 166 37 275 11 108 27 218 35 243 23 73 69 136 181
251 110 111 188 220 224 310 23 58 37 186 23 210 -15 26 -95 -34 -139 -103
-40 -62 -76 -95 -199 -180 -116 -79 -176 -137 -244 -238 -64 -93 -170 -297
-192 -366 -6 -22 -60 -136 -118 -253 -84 -169 -109 -211 -121 -206 -38 16
-193 63 -263 79 -43 10 -78 21 -78 24 0 9 125 159 224 268 143 158 208 268
266 448 18 55 45 134 60 175 15 41 31 86 35 100 9 32 122 249 186 358 27 45
72 120 99 166 28 47 50 89 50 95 0 18 -40 33 -70 26 -49 -11 -270 -200 -270
-232 0 -4 -30 -39 -66 -78 -67 -72 -166 -210 -201 -280 -11 -22 -26 -62 -32
-90 -16 -63 -78 -183 -135 -258 -46 -61 -59 -84 -101 -181 -42 -98 -157 -248
-253 -332 -84 -74 -122 -101 -122 -88 0 3 12 50 26 103 34 121 35 214 5 291
-11 30 -21 69 -21 87 0 45 40 89 88 96 90 15 139 140 96 247 -18 45 -16 89 10
206 14 65 14 76 0 124 -18 61 -13 117 18 194 32 80 58 186 58 242 0 37 -9 68
-34 120 -42 86 -49 151 -36 314 25 311 70 442 198 578 31 33 42 62 24 62 -18
0 -88 -58 -123 -101 -97 -119 -180 -290 -230 -474 -17 -60 -41 -133 -54 -162
-27 -59 -104 -166 -194 -268 -127 -143 -148 -208 -107 -327 14 -41 26 -82 26
-92 0 -25 -26 -72 -82 -148 -27 -37 -52 -82 -55 -102 -5 -32 -1 -40 51 -94 31
-32 56 -63 56 -69 0 -6 -25 -27 -55 -47 -90 -59 -145 -167 -145 -283 0 -29 9
-109 20 -178 12 -74 18 -140 14 -161 -4 -22 -25 -57 -54 -90 -30 -35 -52 -71
-60 -102 -7 -26 -14 -48 -15 -50 -1 -1 -38 -9 -81 -16 -43 -8 -125 -26 -181
-40 -56 -14 -120 -26 -143 -26 -59 0 -141 -25 -235 -72 -44 -22 -84 -44 -90
-48 -6 -4 -57 14 -115 42 -121 58 -346 151 -405 167 -446 120 -675 155 -1030
155 -250 0 -415 -14 -615 -55 -52 -10 -102 -19 -111 -19 -8 0 -46 21 -85 47
-205 137 -519 252 -819 300 -170 27 -543 24 -735 -5 -269 -42 -517 -110 -799
-218 -131 -51 -110 -56 -236 55 -116 103 -455 390 -471 399 -11 6 -11 16 6 58
56 149 66 422 20 589 -88 323 -329 562 -633 629 l-28 7 3 135 3 136 56 23
c126 51 246 142 354 267 136 158 192 308 182 488 -6 119 -32 195 -95 278 -91
121 -204 175 -363 176 l-85 0 111 151 c157 212 186 256 249 386 80 163 108
281 104 424 -4 93 -9 121 -34 185 -93 233 -322 469 -384 395 -22 -26 -4 -69
83 -197 111 -163 130 -215 125 -335 -4 -83 -7 -99 -46 -177 -44 -88 -122 -197
-211 -296 l-50 -55 -1 753 c0 654 2 752 15 752 24 0 87 62 106 105 24 51 23
99 0 150 -21 46 -54 79 -94 94 -31 12 -118 13 -155 3z m510 -1124 c25 -51 53
-117 62 -147 32 -110 14 -257 -54 -436 -53 -139 -57 -146 -272 -438 l-118
-159 0 181 0 181 66 67 c105 107 203 240 253 343 l46 95 0 125 c0 120 -1 128
-33 194 -18 38 -56 103 -85 145 -78 112 -77 115 10 24 62 -64 90 -103 125
-175z m-489 -1248 c-5 -3 -39 -18 -78 -33 -38 -15 -108 -50 -155 -78 -105 -63
-170 -99 -170 -93 0 8 112 184 134 211 13 16 46 58 73 95 28 37 83 103 124
146 l74 79 3 -160 c1 -88 -1 -163 -5 -167z m390 -50 c54 -17 76 -31 127 -81
117 -115 156 -274 110 -453 -42 -165 -133 -297 -282 -413 -53 -40 -212 -132
-231 -133 -4 0 -6 57 -5 126 l3 126 63 24 c118 44 201 125 259 249 36 79 45
222 18 276 -38 75 -78 102 -176 119 -124 22 -274 -30 -386 -134 -60 -55 -150
-180 -196 -272 -40 -79 -94 -243 -107 -327 -18 -109 -8 -321 19 -414 12 -40
21 -75 21 -78 0 -3 -15 -5 -34 -5 -47 0 -261 -38 -321 -56 -27 -9 -80 -30
-118 -47 -37 -16 -69 -28 -71 -26 -3 2 -10 42 -16 89 -41 300 114 741 361
1027 135 156 335 293 537 369 150 57 310 70 425 34z m-49 -244 c51 -33 67 -73
64 -156 -2 -62 -9 -88 -37 -145 -49 -99 -150 -192 -238 -219 l-23 -7 0 270 0
270 23 5 c51 11 185 0 211 -18z m-334 -290 l0 -254 -37 8 c-139 32 -175 218
-76 388 20 34 96 112 110 112 2 0 3 -114 3 -254z m-195 -193 c20 -49 74 -89
146 -106 l49 -12 0 -134 0 -133 -87 4 c-80 4 -93 7 -143 39 -30 20 -72 55 -94
79 -37 42 -38 44 -32 98 8 68 46 182 93 281 l37 76 7 -75 c3 -41 14 -94 24
-117z m-15 -422 c42 -19 74 -25 132 -25 l78 -1 0 -114 0 -114 -47 7 c-27 4
-98 9 -160 13 l-111 6 -21 83 c-11 45 -24 122 -27 170 l-7 87 54 -44 c30 -25
79 -55 109 -68z m7810 -82 c-11 -148 -35 -268 -134 -661 -88 -349 -106 -447
-111 -621 -4 -114 -11 -161 -55 -347 -28 -118 -55 -258 -61 -310 -6 -52 -14
-113 -17 -135 l-7 -40 -138 -13 c-76 -8 -141 -12 -143 -9 -13 13 19 86 52 117
19 19 42 47 50 62 19 36 18 147 -2 265 -19 114 -15 198 15 276 19 49 32 63 86
102 34 25 68 52 75 60 20 24 3 63 -51 120 -60 64 -60 67 17 174 77 105 84 135
53 225 -44 130 -31 173 101 326 99 115 182 238 208 305 10 28 29 92 42 142 13
51 25 91 27 90 1 -2 -1 -60 -7 -128z m37 69 c-3 -8 -6 -5 -6 6 -1 11 2 17 5
13 3 -3 4 -12 1 -19z m3 -356 c6 -24 22 -60 37 -79 20 -26 28 -50 31 -92 3
-48 -2 -74 -41 -177 -57 -151 -64 -195 -43 -266 14 -48 14 -60 0 -123 -26
-112 -29 -177 -10 -213 34 -65 10 -173 -44 -198 -14 -7 -44 -20 -68 -30 -73
-30 -92 -106 -50 -200 30 -68 28 -162 -6 -286 -14 -52 -26 -107 -26 -121 0
-31 -15 -37 -101 -37 l-70 0 6 68 c11 126 26 207 75 422 41 181 49 236 54 350
7 177 22 260 121 655 45 182 89 364 96 405 l14 75 8 -55 c4 -30 12 -75 17 -98z
m-7688 67 c122 -15 225 -46 335 -99 204 -99 347 -282 415 -530 32 -118 32
-355 -1 -475 -12 -43 -25 -83 -29 -87 -8 -8 -124 84 -222 176 -30 28 -74 67
-98 86 -39 32 -43 41 -52 100 -6 36 -24 93 -40 126 -50 104 -183 197 -340 240
-98 27 -289 25 -399 -4 -303 -81 -500 -248 -645 -547 -154 -318 -184 -624 -96
-985 55 -223 136 -412 277 -646 50 -82 92 -156 95 -164 13 -35 224 -305 329
-420 177 -193 390 -415 458 -476 78 -71 82 -100 20 -159 -23 -22 -67 -70 -98
-106 l-58 -66 -34 25 c-44 31 -109 61 -132 62 -10 0 -29 -11 -42 -25 -22 -21
-25 -33 -25 -90 0 -72 14 -114 53 -161 l25 -30 -30 -50 c-17 -27 -31 -50 -32
-51 -1 -2 -27 7 -57 18 -92 36 -171 8 -185 -65 -6 -35 23 -111 61 -162 13 -17
22 -34 18 -37 -19 -19 -242 149 -342 258 -263 286 -467 591 -627 940 -53 116
-100 215 -104 220 -17 23 -122 310 -159 436 -85 291 -107 453 -98 724 15 447
118 833 313 1180 32 55 68 120 81 145 41 77 206 266 312 357 340 292 701 399
1153 342z m8680 -381 c-5 -7 -36 -60 -67 -118 -32 -58 -63 -112 -70 -120 -49
-61 -198 -400 -235 -535 -27 -100 -106 -268 -164 -349 -24 -33 -88 -108 -141
-166 -168 -180 -215 -253 -245 -376 -9 -36 -34 -65 -178 -202 -106 -102 -191
-193 -232 -250 -54 -76 -73 -94 -115 -112 -185 -83 -238 -122 -338 -254 -92
-122 -150 -179 -270 -268 -60 -44 -123 -99 -139 -123 -28 -39 -108 -233 -108
-260 0 -7 -19 -41 -41 -76 -53 -81 -66 -111 -85 -202 -11 -56 -113 -318 -129
-335 -2 -2 -33 20 -70 49 -53 41 -66 56 -61 73 2 12 34 109 71 216 93 277 184
456 337 661 26 35 62 84 80 109 18 25 96 108 174 185 163 162 245 230 543 452
247 184 380 304 519 469 85 100 227 339 386 649 92 182 198 382 234 445 36 63
73 129 83 147 32 61 243 303 265 303 3 0 2 -6 -4 -12z m-129 -81 c-112 -118
-209 -277 -410 -668 -102 -200 -217 -416 -256 -479 -38 -63 -90 -148 -115
-189 -66 -108 -332 -371 -491 -486 -68 -50 -147 -110 -176 -135 -29 -25 -78
-63 -109 -85 -137 -96 -354 -292 -463 -417 -86 -98 -220 -277 -274 -365 -91
-147 -161 -312 -243 -565 -26 -82 -52 -148 -56 -148 -5 0 -21 11 -36 23 l-27
24 47 284 c36 210 56 301 77 351 46 109 215 379 333 531 34 43 71 91 82 107
12 17 44 47 70 68 67 54 83 73 150 182 89 145 172 224 304 290 25 12 75 51
111 87 l67 65 100 7 c92 7 108 11 197 54 147 71 268 176 389 337 51 67 73 108
138 246 11 23 39 68 63 100 62 82 110 176 134 263 34 123 143 274 353 494 52
53 98 97 102 97 5 0 -23 -33 -61 -73z m-8598 -64 c93 -23 91 -28 -8 -29 -125
-1 -279 -51 -388 -125 -95 -65 -236 -204 -298 -294 -106 -153 -209 -433 -245
-665 -38 -239 -26 -534 29 -754 13 -54 -71 142 -105 244 -117 347 -125 669
-24 950 58 164 144 313 245 428 71 81 139 132 226 170 224 96 392 119 568 75z
m79 -89 c13 -5 16 -22 16 -82 l0 -75 -26 24 c-25 23 -84 115 -84 132 0 8 72
10 94 1z m-139 -56 c15 -29 38 -68 52 -87 21 -27 23 -35 12 -42 -8 -5 -16 -9
-19 -9 -3 0 -27 -21 -55 -47 -27 -26 -113 -100 -190 -165 l-140 -118 -22 24
c-27 31 -133 202 -133 215 0 17 162 151 233 193 73 44 178 87 214 87 17 1 28
-12 48 -51z m364 -109 c12 -21 21 -39 19 -39 -2 0 -25 11 -52 25 -27 14 -55
25 -63 25 -9 0 -13 16 -13 57 l0 57 44 -43 c23 -23 53 -60 65 -82z m8886 -65
c-36 -125 -76 -182 -265 -379 -138 -143 -156 -185 -181 -409 -38 -353 -52
-415 -140 -636 -73 -181 -124 -262 -263 -413 -121 -132 -173 -199 -235 -309
-39 -69 -126 -149 -201 -185 -30 -15 -70 -37 -88 -50 -51 -38 -367 -188 -470
-224 -128 -44 -166 -71 -279 -200 -54 -62 -143 -163 -198 -224 -82 -92 -113
-136 -170 -244 -38 -73 -93 -162 -122 -198 -29 -37 -53 -70 -53 -75 0 -15 -22
-8 -48 16 -15 13 -40 35 -55 48 l-28 23 21 98 c22 110 73 263 104 317 11 19
48 76 82 125 33 50 80 122 102 161 47 82 110 142 255 247 161 117 188 134 257
170 36 19 108 58 160 87 106 59 200 103 277 130 86 30 153 81 263 200 58 63
143 152 189 199 210 215 288 366 400 778 119 437 147 493 297 583 198 120 296
214 331 317 22 63 67 139 71 118 2 -8 -4 -40 -13 -71z m-70 -15 c-39 -111
-121 -193 -299 -303 -97 -60 -147 -101 -179 -146 -35 -49 -3 6 41 70 66 96
124 153 249 242 109 77 193 156 193 179 0 7 2 10 5 7 3 -3 -2 -25 -10 -49z
m-9025 -141 l-1 -133 -76 -60 c-42 -33 -97 -78 -122 -101 -25 -22 -172 -145
-326 -274 -154 -128 -303 -254 -331 -279 -28 -25 -69 -59 -90 -74 l-39 -29 -3
54 c-2 29 -1 94 3 143 6 88 8 91 39 113 17 12 49 39 71 61 49 47 346 297 395
331 46 32 250 204 320 269 55 52 136 111 152 111 4 0 8 -60 8 -132z m133 120
c26 -13 289 -234 362 -303 27 -26 69 -60 93 -76 43 -29 472 -388 580 -486 l54
-48 -91 -48 c-50 -26 -98 -47 -108 -47 -17 0 -445 350 -543 444 -41 39 -97 85
-305 251 l-75 60 0 133 c0 72 3 132 6 132 3 0 15 -5 27 -12z m-745 -206 c69
-104 69 -101 -1 -148 -52 -35 -202 -160 -270 -226 -27 -26 -54 -48 -58 -48
-10 0 26 127 62 218 16 41 29 79 29 85 0 17 86 163 123 211 28 35 32 37 42 21
5 -10 38 -60 73 -113z m612 -152 c0 -13 -7 -20 -20 -20 -25 0 -26 16 -2 29 23
14 22 14 22 -9z m231 -76 c10 -12 -1 -14 -60 -14 l-71 0 0 55 0 55 60 -41 c33
-23 65 -48 71 -55z m-298 41 c-3 -9 -8 -14 -10 -11 -3 3 -2 9 2 15 9 16 15 13
8 -4z m-44 -247 l0 -223 -45 -32 -44 -33 0 219 0 219 42 36 c23 20 43 36 45
36 2 0 3 -100 2 -222z m449 117 l54 -45 -112 0 c-105 0 -113 2 -146 26 -19 15
-34 35 -34 45 0 17 9 19 93 19 l92 0 53 -45z m-364 -35 c26 -13 26 -15 26
-135 l0 -122 -40 -16 -40 -15 0 176 c1 156 2 174 15 152 7 -14 25 -32 39 -40z
m-209 -450 c-19 -37 -19 -120 0 -167 12 -29 15 -101 15 -423 l0 -387 -31 -7
c-17 -3 -40 -6 -50 -6 -18 0 -19 22 -19 699 l0 699 48 41 47 41 3 -230 c2
-190 0 -235 -13 -260z m8695 370 c-21 -63 -50 -167 -65 -230 -35 -150 -97
-332 -151 -445 -64 -135 -136 -237 -243 -345 -53 -53 -146 -151 -207 -217
-120 -128 -157 -154 -309 -212 -44 -17 -134 -60 -200 -96 -81 -45 -125 -63
-134 -57 -8 4 -35 34 -60 66 -54 69 -52 77 41 125 56 28 78 34 154 37 140 8
151 11 207 62 43 41 143 165 256 317 65 88 166 189 232 231 102 65 155 138
286 394 44 85 87 178 97 205 17 48 128 287 132 282 1 -1 -15 -54 -36 -117z
m-7984 -5 l47 -45 -144 0 -144 1 -21 44 -21 45 117 0 118 0 48 -45z m-816
-669 l0 -694 -36 -6 c-19 -4 -42 -10 -50 -13 -12 -4 -14 88 -14 660 l0 665 48
41 c26 23 48 41 50 41 1 0 2 -312 2 -694z m3135 664 c198 -15 358 -45 535
-102 78 -25 335 -153 405 -202 28 -19 68 -45 90 -57 87 -48 289 -213 380 -311
81 -87 189 -227 228 -294 15 -27 44 -71 63 -99 98 -139 227 -451 271 -656 26
-120 26 -471 0 -579 -58 -242 -175 -486 -311 -643 -153 -177 -253 -270 -411
-379 -81 -56 -285 -173 -340 -196 l-30 -12 30 22 c65 48 257 245 312 319 123
166 209 361 250 566 27 133 24 419 -5 575 -73 390 -283 805 -550 1089 -151
161 -342 303 -542 404 -309 155 -656 195 -1077 125 -145 -25 -299 -63 -643
-160 -548 -155 -671 -179 -936 -187 -198 -6 -270 2 -395 43 -92 30 -178 80
-237 137 -49 47 -66 76 -76 126 -15 82 33 160 130 207 67 33 82 26 20 -10
-104 -61 -115 -171 -24 -239 68 -51 174 -81 344 -98 219 -20 422 30 754 189
58 27 132 61 165 75 33 13 121 50 195 81 325 137 652 225 955 255 218 22 273
23 450 11z m-2625 -85 c0 -15 -14 -40 -36 -63 -35 -35 -35 -36 -10 -3 15 19
30 47 33 62 7 36 13 37 13 4z m445 -30 l50 -45 -226 0 -227 0 17 45 16 45 160
0 160 -1 50 -44z m-1085 -619 l0 -654 -27 -6 c-16 -4 -36 -9 -45 -12 -17 -5
-18 29 -18 625 l0 629 42 36 c23 20 43 36 45 36 2 0 3 -294 3 -654z m-120 -65
l0 -619 -31 -11 c-61 -21 -59 -46 -59 594 l0 583 43 36 c23 20 43 36 45 36 1
0 2 -279 2 -619z m1348 564 l54 -45 -356 0 c-196 0 -356 3 -356 8 0 4 19 24
42 44 l43 37 260 0 260 1 53 -45z m4172 -56 c58 -5 166 -21 240 -35 74 -13
172 -31 218 -39 80 -15 273 -72 337 -100 17 -8 75 -33 130 -56 55 -23 135 -59
178 -81 76 -38 78 -39 72 -71 -43 -244 -121 -703 -200 -1172 l-98 -580 -32
-35 c-18 -19 -37 -43 -42 -52 -5 -10 -159 -170 -344 -355 l-335 -338 38 150
c21 83 43 188 50 235 16 107 16 439 0 545 -31 199 -76 418 -104 500 -72 210
-305 621 -430 756 -18 19 -69 80 -113 135 -127 157 -458 476 -551 530 -16 9
-9 13 46 22 332 59 621 72 940 41z m-5642 -801 l-3 -271 -43 61 -43 61 0 443
1 443 42 37 43 38 3 -270 c1 -149 1 -392 0 -542z m1595 755 c19 -16 43 -33 53
-40 15 -9 -74 -12 -408 -12 l-428 -1 0 40 0 40 374 0 373 0 36 -27z m-885
-105 l-3 -43 -32 32 c-20 19 -33 41 -33 56 0 16 12 35 33 53 l32 27 3 -41 c2
-23 2 -61 0 -84z m-828 -334 c0 -371 -5 -454 -24 -362 -4 18 -20 68 -36 110
l-30 77 0 248 0 247 42 43 c23 24 43 43 45 43 2 0 3 -183 3 -406z m8083 369
c-13 -2 -33 -2 -45 0 -13 2 -3 4 22 4 25 0 35 -2 23 -4z m-6383 -17 c0 -3 -47
-23 -104 -45 l-104 -41 -281 0 -281 0 0 45 0 45 385 0 c212 0 385 -2 385 -4z
m6147 -55 c-68 -65 -207 -150 -290 -177 -129 -42 -282 -139 -371 -235 -33 -35
-76 -82 -96 -104 -48 -52 -140 -178 -185 -252 -19 -32 -35 -51 -35 -43 0 19
98 585 108 625 6 22 22 38 67 63 86 49 208 92 261 92 25 0 98 13 162 29 128
32 235 50 327 54 33 2 72 4 87 5 24 2 21 -3 -35 -57z m908 -1 c126 -34 195
-58 195 -69 0 -3 -17 -28 -38 -56 -38 -50 -39 -50 -93 -48 -30 1 -104 14 -165
29 l-112 28 13 30 c7 17 21 53 30 79 13 36 21 47 33 43 10 -3 71 -19 137 -36z
m-5144 -9 c89 -18 262 -70 297 -90 10 -6 -9 -21 -74 -56 -165 -90 -451 -292
-582 -412 l-46 -41 -49 36 c-76 58 -519 427 -546 455 l-23 26 52 15 c83 25
291 65 413 81 153 19 428 13 558 -14z m-3722 -163 c0 -210 -10 -211 -37 -2
l-16 133 24 26 c13 14 25 25 27 25 2 0 3 -82 2 -182z m1364 105 c-35 -2 -91
-2 -125 0 -35 2 -7 3 62 3 69 0 97 -1 63 -3z m9076 -56 c-119 -111 -234 -166
-349 -167 -47 0 -74 5 -97 19 -42 26 -74 17 -184 -51 -105 -65 -220 -127 -235
-128 -6 0 -14 20 -16 45 -7 56 -22 75 -59 75 -16 0 -29 3 -29 7 0 4 10 34 23
66 l22 59 70 -6 c315 -28 432 -27 569 4 56 12 173 56 203 75 19 13 131 63 143
64 3 0 -25 -28 -61 -62z m-699 1 c74 -7 224 -13 333 -13 161 0 193 -2 170 -12
-43 -17 -168 -41 -258 -48 -72 -6 -296 5 -412 21 -40 6 -42 8 -37 33 10 39 12
41 42 36 15 -2 88 -10 162 -17z m-7039 -106 c94 -86 303 -262 360 -301 24 -17
109 -87 189 -155 265 -228 555 -472 590 -496 80 -55 159 -132 174 -171 14 -35
16 -143 16 -973 l0 -934 -97 -33 c-54 -17 -104 -34 -110 -37 -10 -3 -13 190
-13 944 l-1 949 -148 123 c-81 68 -161 132 -177 141 -16 10 -49 38 -74 61 -54
51 -292 252 -737 623 -182 152 -334 280 -337 286 -4 6 10 15 31 20 21 6 76 21
123 34 100 28 89 32 211 -81z m-1871 -304 l0 -318 -22 0 c-13 0 -33 -3 -45 -6
l-23 -6 0 368 0 368 45 -44 45 -44 0 -318z m3445 289 c152 -102 373 -299 429
-383 18 -27 53 -78 78 -114 53 -76 160 -259 187 -322 10 -24 32 -72 49 -108
40 -89 87 -237 111 -357 89 -435 16 -817 -218 -1137 -83 -114 -254 -280 -360
-350 -81 -54 -334 -178 -408 -200 l-23 -7 0 914 c0 757 -2 922 -14 961 -20 66
-70 139 -117 170 -48 32 -574 473 -609 510 l-25 27 56 52 c107 98 344 263 559
388 l115 67 65 -36 c36 -19 92 -53 125 -75z m4519 64 c44 -12 98 -21 120 -21
41 -1 41 -1 19 -18 -113 -87 -132 -96 -192 -93 -73 3 -119 -18 -211 -97 l-65
-55 -10 28 c-9 25 -13 27 -57 23 l-47 -5 27 31 c15 17 78 79 141 137 l114 106
41 -8 c23 -4 77 -17 120 -28z m-1194 -93 c-27 -34 -74 -103 -104 -153 -35 -59
-71 -104 -99 -126 -97 -76 -246 -269 -400 -519 -49 -80 -87 -134 -84 -120 3
14 15 81 27 150 18 111 26 134 67 205 112 195 297 415 422 504 59 41 202 121
218 121 2 0 -19 -28 -47 -62z m-5310 22 l35 -29 -145 0 c-80 0 -138 3 -130 7
34 13 166 50 185 51 12 1 36 -12 55 -29z m-1350 -312 l0 -288 -40 0 -40 0 0
309 0 309 40 -21 40 -22 0 -287z m1470 212 l55 -49 -712 -1 -713 0 0 40 c0 22
2 40 4 40 3 0 44 -10 93 -22 157 -39 463 -28 708 26 39 9 139 14 285 14 l225
1 55 -49z m6339 -19 c-8 -10 -32 -41 -54 -69 -22 -28 -65 -83 -95 -123 -110
-145 -186 -234 -219 -256 -28 -19 -48 -23 -110 -23 -149 0 -246 -40 -321 -133
-152 -186 -151 -185 -286 -198 -106 -10 -144 -26 -231 -96 l-58 -47 36 49 c22
31 69 72 120 107 103 70 198 160 272 259 105 141 168 195 272 234 105 40 120
50 168 118 57 80 62 83 123 92 47 6 51 5 62 -19 16 -37 42 -33 102 17 109 88
142 107 189 107 41 0 43 -1 30 -19z m-6194 -102 c28 -23 52 -43 54 -45 2 -2
-350 -4 -782 -4 l-787 0 0 45 0 45 733 0 732 0 50 -41z m-3531 -108 c14 -57
26 -108 26 -112 0 -4 -55 -54 -122 -110 -68 -56 -132 -111 -143 -123 -30 -32
-266 -230 -300 -252 -16 -10 -93 -72 -170 -137 l-140 -117 -5 -623 -5 -622
-55 -22 c-30 -12 -76 -24 -102 -28 l-48 -7 0 676 c0 554 3 683 14 710 16 38
69 85 481 427 160 133 308 259 329 280 22 22 59 54 83 72 24 17 62 46 86 64
23 18 42 31 43 30 2 -1 14 -49 28 -106z m10805 80 c-8 -10 -49 -69 -92 -130
-159 -227 -323 -411 -367 -411 -27 0 -108 -38 -183 -86 -37 -24 -71 -44 -75
-44 -4 0 -23 -11 -42 -24 -19 -13 -75 -45 -125 -71 -106 -57 -217 -126 -461
-289 -99 -65 -199 -127 -223 -138 -96 -41 -254 -160 -357 -269 -118 -123 -169
-195 -198 -281 l-21 -62 -105 -26 c-58 -15 -118 -30 -135 -34 l-30 -7 31 33
c45 48 82 107 154 243 53 98 83 140 169 235 59 64 140 155 181 203 86 101 146
145 245 177 39 12 97 35 131 50 49 22 82 28 178 34 143 9 185 23 247 81 30 28
92 67 161 101 126 61 178 105 243 204 68 104 121 142 278 197 163 56 210 92
286 216 19 31 42 59 51 62 9 3 27 17 40 30 28 30 38 33 19 6z m-44 -151 c-42
-73 -94 -173 -115 -222 -71 -166 -108 -199 -240 -222 l-85 -15 -65 -70 c-36
-38 -79 -76 -96 -85 -20 -9 -43 -36 -62 -70 -38 -66 -64 -86 -114 -86 -47 0
-71 -24 -99 -99 -35 -94 -82 -173 -114 -192 -18 -11 -49 -19 -76 -19 -25 0
-61 -5 -80 -11 -44 -15 -124 -73 -168 -122 -19 -22 -64 -60 -100 -85 -100 -70
-162 -124 -210 -185 -39 -48 -52 -57 -100 -70 -31 -8 -118 -31 -194 -52 -77
-20 -141 -35 -143 -32 -9 9 29 93 72 158 25 38 96 120 157 182 110 111 173
156 323 231 29 14 125 74 214 133 272 181 352 231 435 274 44 23 109 61 145
84 36 22 79 48 95 57 17 8 59 32 94 52 35 20 84 41 110 48 37 9 60 26 121 87
66 67 200 237 325 414 22 31 41 54 43 53 2 -2 -31 -63 -73 -136z m-7085 65
l44 -45 -852 0 -852 0 0 45 0 45 808 0 808 0 44 -45z m2902 -130 c113 -158
270 -460 323 -619 73 -218 105 -442 105 -739 0 -342 -41 -529 -171 -790 -43
-86 -122 -215 -142 -232 -7 -5 -39 -44 -71 -85 -149 -189 -451 -454 -661 -579
-49 -30 -146 -91 -215 -136 -69 -45 -240 -148 -380 -230 -140 -81 -292 -172
-337 -201 -45 -30 -94 -59 -110 -66 -78 -34 -345 -231 -454 -335 -78 -74 -176
-208 -233 -318 -14 -28 -35 -89 -47 -135 -38 -148 -10 -282 79 -381 l47 -52
-40 7 c-50 10 -191 64 -275 106 -118 58 -234 143 -321 232 -237 242 -335 443
-346 708 -5 107 -2 139 16 210 26 105 83 225 145 307 52 68 186 198 254 245
107 74 509 232 932 367 266 85 664 223 858 297 63 24 117 44 122 44 11 0 223
118 294 164 166 107 302 227 434 384 116 139 144 179 205 292 251 465 245 984
-18 1510 -50 101 -49 104 7 25z m-2767 10 l50 -44 -922 -1 -923 0 0 45 0 45
873 0 872 0 50 -45z m-3722 -178 l37 -113 0 -345 0 -345 -45 -44 -45 -44 0
502 c0 276 4 502 8 502 4 0 24 -51 45 -113z m3842 79 l29 -23 -54 -19 c-52
-17 -109 -19 -910 -22 -470 -2 -883 0 -917 3 l-63 7 0 39 0 39 943 0 942 0 30
-24z m-3975 -1051 l-50 -50 0 512 0 511 48 40 47 40 3 -501 2 -502 -50 -50z
m3595 909 l-150 -44 -451 0 -451 0 -64 26 c-35 15 -89 35 -119 45 -54 18 -42
18 665 18 l720 0 -150 -45z m651 -86 c86 -73 174 -146 196 -163 21 -16 103
-84 183 -150 l144 -120 0 -942 1 -942 -182 -60 c-566 -184 -947 -360 -1250
-578 -95 -69 -222 -185 -254 -232 -13 -20 -56 -76 -95 -126 -113 -144 -202
-342 -252 -563 -19 -84 -22 -127 -21 -312 0 -183 3 -230 22 -315 34 -160 112
-358 195 -498 51 -85 214 -307 226 -307 4 0 39 -27 77 -61 82 -71 206 -156
287 -195 58 -29 75 -58 40 -71 -17 -7 -97 7 -182 33 l-53 15 7 54 c6 49 4 57
-18 79 -34 34 -96 49 -202 50 -127 1 -169 -23 -183 -105 -8 -44 -8 -44 -47
-42 -21 2 -49 10 -63 19 -25 17 -26 28 -6 129 9 48 -26 85 -79 85 -44 0 -45
-1 -186 -117 -28 -23 -88 -61 -133 -85 -46 -24 -107 -66 -137 -95 -49 -47 -53
-55 -47 -85 8 -41 37 -66 87 -74 34 -6 39 -10 39 -33 0 -29 -45 -131 -57 -131
-4 0 -27 7 -51 15 -36 13 -48 13 -69 3 -46 -23 -62 -57 -70 -142 -6 -71 -10
-83 -49 -136 -76 -104 -85 -130 -59 -180 20 -39 68 -63 106 -55 42 10 38 -17
-16 -99 -24 -37 -47 -76 -50 -87 -8 -24 -21 -24 -71 3 -39 21 -43 21 -67 5
-28 -18 -52 -82 -63 -165 -6 -45 -8 -50 -19 -35 -44 66 -180 359 -228 493
-136 376 -194 703 -204 1153 l-6 247 -30 0 -30 0 6 -272 c6 -273 17 -394 58
-613 57 -307 170 -638 301 -881 36 -67 69 -131 73 -143 9 -28 134 -219 198
-301 108 -138 431 -449 545 -525 23 -15 42 -29 42 -32 0 -2 -17 -18 -37 -36
-21 -18 -71 -63 -113 -101 -41 -37 -100 -85 -130 -107 -30 -21 -100 -76 -155
-123 -55 -47 -103 -86 -106 -86 -7 0 -867 720 -924 774 -22 20 -59 52 -83 69
-24 18 -116 92 -205 166 -186 153 -164 115 -242 418 -77 299 -90 412 -90 753
0 388 8 436 179 1167 25 105 52 233 61 285 8 51 18 108 21 126 3 23 1 32 -9
32 -10 0 -19 -30 -31 -107 -10 -60 -57 -281 -106 -493 -49 -212 -94 -412 -100
-445 -20 -108 -40 -387 -40 -565 0 -337 29 -549 116 -867 19 -69 34 -127 34
-130 0 -3 -32 24 -71 58 -38 35 -104 93 -145 129 -67 58 -79 73 -106 140 -70
177 -157 552 -192 830 -60 480 -43 969 50 1415 60 286 137 501 295 823 55 112
107 231 116 265 34 133 -1 224 -149 385 -76 82 -92 114 -92 182 1 66 30 128
114 245 31 44 64 94 73 111 31 61 66 165 60 179 -9 26 -40 37 -65 24 -20 -10
-19 -8 5 19 60 63 99 77 481 167 225 53 351 151 514 400 50 77 99 151 109 165
10 14 61 90 113 170 161 249 266 360 510 543 96 72 198 147 225 168 109 82
270 176 481 280 121 60 226 109 233 109 6 0 94 27 194 59 185 60 716 218 739
220 5 1 78 -59 164 -131z m-4316 -389 l0 -511 -47 -59 -48 -59 -3 533 -3 532
43 37 c24 21 46 38 51 38 4 0 7 -230 7 -511z m2014 505 c14 -5 16 -48 16 -375
l0 -369 -25 16 c-14 9 -100 96 -191 193 -92 97 -197 208 -234 246 -74 79 -160
179 -160 188 0 21 292 85 435 96 145 12 142 12 159 5z m269 -30 c91 -18 182
-48 287 -95 95 -43 330 -170 330 -178 0 -4 -25 -19 -56 -34 -88 -43 -301 -174
-379 -232 -167 -124 -311 -231 -322 -238 -10 -6 -13 73 -13 398 l0 406 38 -6
c20 -4 72 -13 115 -21z m-2418 -1149 c-3 -11 -21 -38 -40 -59 l-35 -39 0 556
0 556 38 30 37 31 3 -527 c1 -291 0 -537 -3 -548z m3425 1030 l-125 -45 -165
1 -165 0 -75 44 -75 45 365 -1 365 0 -125 -44z m5770 28 c0 -5 19 -33 41 -63
23 -30 37 -56 32 -57 -23 -8 -192 -118 -278 -182 -123 -92 -204 -173 -244
-246 -19 -33 -64 -105 -101 -160 -98 -143 -153 -275 -186 -441 -9 -46 -20 -84
-24 -84 -9 0 -160 118 -160 125 0 3 25 63 55 134 30 71 62 158 70 193 29 119
34 133 83 210 27 43 59 105 71 139 17 44 40 78 87 128 85 90 157 129 265 141
140 16 168 31 236 123 32 43 53 59 53 40z m-8703 -378 l3 -160 -45 -38 -45
-38 0 283 1 283 41 -85 42 -85 3 -160z m-597 -254 l0 -559 -45 -49 -44 -48 0
575 0 575 42 32 c23 17 43 32 45 32 1 1 2 -251 2 -558z m3318 518 c-10 -5 -39
-16 -64 -24 -40 -12 -51 -12 -73 0 -61 33 -58 35 49 35 76 -1 100 -3 88 -11z
m-4051 -79 c-70 -78 -77 -110 -77 -350 l0 -207 -72 -17 c-95 -23 -141 -48
-210 -114 -76 -72 -112 -131 -134 -222 -37 -149 -14 -323 57 -427 181 -262
494 -301 798 -99 114 76 400 358 481 475 95 137 482 544 591 622 31 22 41 15
63 -47 26 -72 212 -359 343 -529 90 -116 258 -302 281 -310 9 -3 27 -18 38
-33 l21 -27 -74 3 c-144 7 -326 -48 -477 -143 -105 -65 -275 -209 -506 -426
-276 -259 -320 -294 -475 -373 -308 -159 -627 -204 -923 -130 -294 73 -576
322 -738 649 -88 178 -115 285 -121 478 -6 169 5 257 48 392 59 186 169 357
333 520 228 227 490 351 769 364 l29 1 -45 -50z m568 -1180 l-45 -45 0 590 0
590 42 37 43 36 3 -581 2 -582 -45 -45z m-75 516 l0 -583 -47 -44 -48 -44 -3
590 -3 590 43 37 c24 21 46 38 51 38 4 0 7 -263 7 -584z m921 391 c-9 -11 -24
-23 -33 -28 -17 -9 -18 -2 -18 88 l0 98 34 -70 c31 -65 32 -71 17 -88z m-1041
-491 l0 -585 -33 -25 c-19 -15 -37 -26 -40 -26 -4 0 -7 262 -7 582 l0 582 33
27 c17 16 35 28 40 29 4 0 7 -263 7 -584z m-450 -291 c0 -245 -2 -445 -4 -445
-32 0 -147 50 -193 83 -67 50 -97 87 -144 177 -30 58 -34 75 -37 160 -3 78 0
107 17 158 49 144 143 238 293 292 29 11 56 19 61 20 4 0 7 -200 7 -445z
m2806 279 c52 -30 53 -38 3 -23 -92 28 -143 -72 -78 -156 12 -14 19 -28 16
-31 -10 -11 -56 63 -66 105 -10 47 -5 108 12 129 14 18 56 9 113 -24z m8236
-41 c-114 -127 -171 -178 -176 -162 -2 8 -9 28 -14 46 l-10 31 131 80 c73 44
134 81 136 81 2 1 -28 -34 -67 -76z m-1871 -139 c145 -113 266 -209 267 -215
10 -28 -44 10 -284 196 -237 185 -283 225 -256 225 5 0 127 -92 273 -206z
m-41 -27 c290 -225 269 -207 245 -207 -24 0 -527 389 -519 401 7 13 -1 19 274
-194z m-6307 152 c12 -7 23 -13 25 -15 6 -4 -71 -104 -80 -104 -11 0 -38 56
-38 79 0 43 48 63 93 40z m6266 -179 c132 -102 240 -189 240 -193 1 -5 -6 -7
-15 -5 -19 4 -493 370 -494 381 -1 21 47 -11 269 -183z m-51 -18 c122 -95 224
-178 227 -183 4 -5 0 -9 -8 -9 -15 0 -422 311 -444 340 -14 17 -17 33 -5 28 4
-1 108 -81 230 -176z m-232 127 c10 -12 106 -89 212 -171 105 -82 192 -151
192 -154 0 -19 -54 16 -207 136 -201 157 -233 185 -233 200 0 16 15 12 36 -11z
m1849 -2 c-11 -8 -139 -85 -285 -171 -286 -171 -788 -473 -1082 -653 -101 -61
-214 -128 -253 -147 -38 -20 -108 -60 -155 -90 -47 -30 -227 -140 -400 -245
-173 -106 -344 -210 -380 -233 -36 -23 -94 -56 -130 -74 -36 -18 -156 -88
-267 -156 -373 -228 -804 -488 -808 -488 -3 0 -146 -85 -320 -190 l-315 -189
0 199 c0 110 0 203 -1 207 0 3 127 81 283 173 155 91 315 186 353 211 168 109
290 187 362 232 136 86 236 170 433 367 173 172 323 378 391 534 13 31 31 58
39 62 8 3 175 48 370 99 195 52 452 119 570 150 118 32 262 67 320 80 96 20
340 84 1020 265 282 75 283 76 255 57z m-1852 -55 c43 -40 238 -194 316 -250
35 -25 40 -32 23 -32 -33 0 -402 287 -402 312 0 17 22 6 63 -30z m2012 -33
l14 -53 -202 -200 c-111 -111 -414 -417 -672 -681 -259 -264 -533 -543 -611
-620 -77 -77 -374 -378 -660 -670 -285 -291 -560 -570 -610 -620 -49 -49 -319
-322 -598 -607 l-507 -516 -87 23 c-189 51 -341 105 -529 187 l-93 41 0 526 0
526 288 174 c158 95 325 197 372 227 47 30 112 68 145 84 33 16 140 78 237
137 297 182 852 517 875 530 26 13 564 339 821 496 97 59 206 123 242 141 36
18 106 58 155 89 50 31 227 139 395 241 168 101 337 205 375 231 39 25 102 61
140 81 39 19 165 92 280 162 116 71 211 127 213 126 2 -1 10 -26 17 -55z
m-2037 -6 c85 -74 264 -213 295 -229 26 -14 37 -34 18 -34 -14 0 -117 71 -201
140 -41 33 -101 81 -132 107 -32 25 -55 50 -52 54 9 14 14 11 72 -38z m110
-148 c55 -44 115 -89 133 -99 24 -14 29 -21 18 -23 -25 -6 -121 60 -266 183
-34 28 -71 58 -83 67 -12 8 -19 20 -15 26 4 7 26 -5 59 -31 30 -24 99 -79 154
-123z m-157 68 c41 -31 77 -62 81 -69 5 -7 46 -38 93 -70 55 -36 82 -61 76
-67 -6 -6 -21 0 -43 16 -18 14 -54 40 -80 59 -79 56 -218 171 -218 180 0 17
20 6 91 -49z m-18 -44 c51 -40 97 -77 102 -83 6 -6 34 -27 62 -46 52 -35 68
-54 37 -48 -24 5 -314 230 -308 240 8 13 12 11 107 -63z m2171 -217 c81 -528
4 -1181 -197 -1677 -95 -236 -337 -644 -470 -792 -30 -34 -69 -81 -85 -105
-70 -101 -413 -415 -562 -515 -25 -16 -72 -48 -105 -70 -150 -100 -352 -208
-530 -282 -55 -23 -113 -48 -130 -56 -156 -69 -530 -156 -795 -186 -136 -15
-505 -15 -645 0 -118 13 -347 49 -354 57 -3 2 60 71 140 152 362 368 1383
1407 1659 1687 349 354 779 791 1220 1239 168 171 418 423 555 561 l250 250
17 -80 c9 -44 24 -126 32 -183z m-2209 186 c39 -30 85 -62 102 -71 18 -10 36
-23 40 -30 4 -7 20 -22 35 -34 20 -15 24 -22 15 -26 -8 -3 -34 13 -58 34 -24
22 -57 47 -74 56 -51 27 -166 124 -159 134 3 6 11 6 17 1 7 -5 44 -34 82 -64z
m-6180 17 c-33 -32 -32 -69 3 -138 35 -69 22 -65 -18 6 -16 29 -30 65 -30 80
0 27 38 77 59 77 6 0 -1 -11 -14 -25z m6133 -36 c37 -27 95 -70 130 -94 56
-41 76 -65 54 -65 -5 0 -40 24 -80 53 -39 28 -98 72 -131 95 -58 41 -74 62
-50 62 6 0 40 -23 77 -51z m-6035 25 l46 -7 -15 -29 c-8 -16 -22 -32 -30 -35
-7 -3 -14 -10 -14 -17 0 -6 -9 -24 -19 -40 l-19 -29 -21 41 c-23 46 -27 92 -9
110 14 14 19 14 81 6z m5967 -32 c19 -16 46 -35 60 -42 25 -13 150 -109 150
-115 0 -20 -31 -5 -92 44 -41 32 -85 64 -99 71 -36 19 -79 57 -72 64 10 10 17
7 53 -22z m-10 -46 c96 -64 174 -131 157 -134 -9 -2 -47 21 -84 51 -37 29 -87
66 -111 81 -23 15 -40 31 -37 37 7 10 8 10 75 -35z m-67 -8 c53 -28 177 -132
166 -139 -10 -6 -131 80 -203 143 -15 12 12 10 37 -4z m29 -75 c84 -65 101
-83 77 -83 -15 0 -179 129 -179 141 0 17 13 10 102 -58z m-34 -33 c44 -33 67
-57 60 -61 -14 -9 -170 109 -162 122 7 11 14 7 102 -61z m-52 -17 c62 -47 75
-63 52 -63 -14 0 -137 92 -138 103 0 17 27 4 86 -40z m-6198 11 c21 -6 22 -10
22 -143 l0 -137 -39 -22 c-21 -12 -41 -22 -45 -22 -3 0 -6 74 -6 165 0 164 0
165 23 165 12 0 32 -3 45 -6z m6165 -46 c36 -28 44 -38 29 -38 -24 0 -114 68
-107 81 7 11 15 7 78 -43z m-6253 -122 l0 -164 -44 -11 c-25 -6 -47 -11 -50
-11 -3 0 -6 79 -6 175 l0 175 50 0 50 0 0 -164z m203 150 c27 -6 27 -7 27 -90
l0 -83 -39 -31 c-22 -18 -42 -32 -45 -32 -3 0 -6 57 -6 126 0 115 2 125 18
121 9 -3 29 -8 45 -11z m-333 -170 l0 -174 -27 -6 c-16 -4 -36 -9 -46 -12 -16
-5 -17 6 -15 167 l3 173 40 12 c22 7 41 13 43 13 1 1 2 -77 2 -173z m6365 93
c12 -18 -20 -9 -57 17 -38 27 -44 35 -32 47 7 6 78 -45 89 -64z m-5924 3 c-5
-9 -19 -26 -30 -36 l-21 -19 0 52 0 52 30 -16 c24 -12 28 -19 21 -33z m-561
-130 l0 -169 -45 -10 -45 -10 0 159 0 159 43 19 c23 10 43 19 45 19 1 1 2 -75
2 -167z m6407 133 c23 -20 25 -24 10 -25 -22 0 -69 34 -60 44 11 11 21 7 50
-19z m-49 -17 c16 -16 15 -28 -2 -28 -17 0 -38 24 -29 33 9 10 17 9 31 -5z
m-6478 -161 l0 -152 -45 -16 -45 -17 0 142 0 141 43 27 c23 15 43 28 45 28 1
0 2 -69 2 -153z m6434 134 c3 -5 -3 -11 -15 -14 -16 -4 -18 -3 -8 9 13 16 16
17 23 5z m-6554 -195 l0 -134 -37 -23 c-21 -13 -41 -25 -45 -27 -14 -6 -9 241
5 258 12 16 67 60 73 60 2 0 4 -60 4 -134z m-144 -249 c-14 -18 -34 -53 -45
-77 l-21 -45 0 167 0 166 43 36 42 35 3 -125 c2 -119 2 -126 -22 -157z m-96
-96 l0 -268 -26 -48 c-15 -26 -35 -72 -45 -103 l-18 -57 0 335 -1 334 37 38
c20 21 41 38 45 38 4 0 8 -121 8 -269z m-120 -759 c0 -910 0 -919 -21 -978
-12 -32 -32 -93 -45 -134 l-24 -75 4 185 c3 124 9 206 20 250 43 175 41 418
-4 668 -17 95 -20 154 -20 517 l0 409 37 38 c20 21 41 38 45 38 4 0 8 -413 8
-918z m-120 471 c0 -315 -1 -336 -16 -314 -14 19 -23 22 -50 18 l-34 -6 0 272
0 271 47 48 c26 26 49 48 50 48 2 0 3 -152 3 -337z m395 261 c-9 -27 -22 -60
-31 -74 l-15 -25 6 30 c8 36 46 127 51 122 2 -2 -3 -26 -11 -53z m-517 -799
l-3 -520 -37 -108 c-21 -59 -42 -115 -47 -125 -7 -11 -10 222 -11 713 l0 731
48 35 47 36 3 -121 c1 -67 1 -355 0 -641z m-154 -909 c-57 -111 -54 -152 -54
719 l1 800 37 26 37 25 3 -760 2 -760 -26 -50z m-125 -193 c-23 -35 -43 -63
-45 -63 -2 0 -4 384 -4 854 l0 855 43 23 42 23 3 -814 2 -814 -41 -64z m-120
-160 c-23 -29 -43 -53 -45 -53 -2 0 -4 407 -4 905 l0 904 43 19 42 18 3 -869
2 -870 -41 -54z m-79 820 l-1 -918 -49 -54 -50 -55 0 961 0 960 33 11 c17 5
40 10 50 11 16 1 17 -49 17 -916z m-120 -81 l0 -968 -40 -39 -40 -39 0 997 0
996 33 10 c17 5 35 10 40 10 4 1 7 -435 7 -967z m-140 -81 l0 -1018 -105 -109
-104 -109 -1 1118 0 1117 58 1 c31 0 75 4 97 8 22 5 43 9 48 10 4 0 7 -457 7
-1018z m1069 746 l31 -46 0 -333 0 -334 -45 -99 -45 -100 1 520 c0 439 2 514
13 479 7 -23 27 -62 45 -87z m3231 -64 c-66 -87 -135 -227 -161 -328 -31 -118
-29 -297 4 -426 54 -207 141 -351 327 -542 168 -173 320 -268 563 -349 133
-44 285 -67 450 -68 l97 0 0 -579 0 -579 -67 -56 -67 -55 -43 40 c-24 21 -73
60 -110 84 -38 25 -78 52 -90 61 -30 21 -89 20 -114 -2 -10 -9 -19 -30 -19
-46 0 -25 -3 -28 -33 -28 -18 0 -53 7 -78 15 -24 7 -64 19 -88 25 l-44 12 32
28 c37 34 39 50 9 84 -18 20 -39 28 -92 36 -75 12 -139 40 -208 93 -83 64
-109 70 -150 37 l-25 -19 -78 44 c-43 25 -112 71 -154 102 -41 32 -87 65 -102
74 -39 25 -147 156 -210 256 -116 181 -201 382 -240 563 -30 141 -33 438 -6
573 78 385 301 719 627 940 63 42 116 77 117 77 2 0 -19 -30 -47 -67z m-3434
-228 c20 -155 14 -407 -11 -525 -29 -131 -82 -271 -156 -410 -39 -74 -82 -155
-94 -180 -28 -56 -186 -273 -253 -349 -91 -101 -383 -465 -399 -496 -9 -16
-49 -73 -88 -125 -314 -410 -414 -800 -335 -1297 18 -111 86 -362 135 -498 56
-156 291 -634 374 -760 128 -194 295 -409 524 -670 28 -33 87 -91 129 -128
l76 -68 -61 -56 c-34 -31 -80 -74 -103 -97 -22 -23 -102 -96 -177 -164 l-136
-122 -103 102 c-119 119 -216 230 -307 352 -35 47 -75 98 -88 112 -74 80 -257
382 -383 632 -161 320 -297 762 -335 1091 -51 435 20 822 236 1290 28 60 120
198 166 247 21 22 91 100 157 172 65 73 125 132 132 132 8 0 18 10 23 23 5 13
105 120 223 238 374 375 516 554 641 809 120 245 169 435 171 660 1 80 -2 195
-6 255 l-7 110 19 -75 c11 -41 27 -133 36 -205z m354 -37 l-1 -163 -44 -80
-45 -80 0 290 0 290 45 -47 45 -47 0 -163z m42 -35 c-9 -46 -10 -44 -10 42 0
81 1 86 10 48 7 -28 7 -57 0 -90z m-495 -5 c-2 -13 -4 -5 -4 17 -1 22 1 32 4
23 2 -10 2 -28 0 -40z m5093 -317 l0 -210 -87 -52 c-49 -29 -98 -59 -110 -67
l-23 -14 0 206 0 207 107 69 c59 39 108 70 110 70 2 0 3 -94 3 -209z m-282
-182 l-3 -201 -90 -47 c-49 -26 -132 -74 -183 -107 -52 -32 -121 -76 -154 -97
l-61 -39 6 60 c8 70 34 143 80 215 18 29 38 64 45 80 17 39 162 187 262 268
47 38 88 69 93 69 4 0 6 -90 5 -201z m280 -1162 l-3 -1012 -25 -32 c-14 -17
-71 -70 -127 -118 -73 -61 -108 -85 -120 -80 -10 3 -47 32 -83 64 l-64 58 17
26 c9 14 28 34 43 44 14 10 52 40 85 66 l59 48 0 919 0 918 33 11 c17 7 64 31
102 56 39 24 73 44 78 44 4 1 6 -455 5 -1012z m-5022 515 c-25 -130 -50 -296
-65 -437 -6 -57 -9 32 -10 307 l-1 388 48 105 47 105 3 -171 c2 -147 -1 -188
-22 -297z m-1146 363 l0 -85 -41 0 c-33 0 -40 -3 -37 -17 2 -13 14 -19 41 -21
l37 -3 0 -406 0 -405 -78 -82 c-95 -98 -237 -265 -279 -326 -94 -139 -251
-539 -292 -745 -68 -337 -55 -713 35 -1068 25 -99 111 -357 154 -461 22 -55
40 -100 40 -101 0 -4 -235 -142 -254 -149 -18 -6 -278 -163 -476 -286 -52 -33
-99 -60 -105 -60 -17 0 -173 97 -268 169 -301 224 -520 489 -705 854 -82 161
-136 331 -175 545 -30 169 -31 188 -31 442 0 253 1 273 31 442 18 97 49 227
69 289 71 214 247 531 394 709 89 109 305 316 409 394 124 92 230 156 396 239
215 108 361 152 610 186 206 28 201 28 373 29 l152 2 0 -85z m5890 -301 l0
-277 -112 5 c-92 5 -124 10 -170 31 -81 36 -176 138 -193 207 -5 22 1 29 42
53 26 16 131 80 233 143 102 62 188 114 193 114 4 0 7 -124 7 -276z m-4844
-2042 c-3 -2 -25 13 -50 34 l-46 38 0 982 0 982 48 77 47 78 3 -1093 c1 -601
0 -1095 -2 -1098z m-126 1043 l0 -936 -40 32 -40 32 0 845 0 844 38 59 c20 32
38 58 40 58 1 1 2 -420 2 -934z m-114 -833 c-3 -2 -23 11 -45 29 l-41 34 0
718 0 718 43 53 42 52 3 -800 c1 -439 0 -801 -2 -804z m-120 100 c-3 -2 -23
11 -45 29 l-41 34 0 599 0 598 43 51 42 51 3 -679 c1 -373 0 -680 -2 -683z
m-116 653 c0 -305 -3 -555 -6 -555 -3 0 -25 14 -50 30 l-44 31 0 470 0 470 43
54 c23 30 45 54 50 54 4 1 7 -249 7 -554z m-125 -463 c-3 -3 -21 10 -40 28
l-35 34 0 361 0 362 38 48 37 48 3 -438 c1 -241 0 -440 -3 -443z m-98 -5 c20
-18 52 -43 72 -56 44 -30 458 -374 486 -405 24 -26 245 -211 300 -251 62 -46
337 -274 368 -307 36 -36 370 -316 417 -348 42 -29 216 -176 245 -206 29 -31
503 -425 545 -453 19 -13 60 -47 90 -76 70 -66 249 -215 259 -215 4 0 83 64
177 143 93 78 183 151 199 161 17 11 35 25 40 33 6 7 152 132 325 277 l315
265 65 0 c56 0 216 -22 225 -31 2 -2 -56 -54 -128 -116 -73 -61 -208 -177
-302 -258 -93 -80 -195 -163 -225 -184 -30 -21 -104 -82 -165 -134 -248 -215
-406 -347 -440 -367 -29 -17 -48 -21 -99 -17 -56 3 -70 9 -117 45 -30 23 -72
59 -94 81 -46 45 -409 350 -457 384 -44 31 -208 168 -233 194 -31 33 -524 444
-571 476 -23 15 -47 35 -55 44 -13 16 -634 542 -712 604 -85 67 -591 492 -660
554 -121 110 -117 99 -117 334 0 116 -4 202 -9 204 -9 3 56 104 179 282 l35
51 3 -338 2 -338 37 -32z m3469 454 c8 -53 43 -111 82 -137 61 -42 303 -62
336 -28 9 8 16 17 16 19 0 2 -7 11 -16 19 -10 11 -34 16 -70 16 -51 0 -54 2
-54 24 0 44 42 66 129 66 42 0 93 -5 114 -11 l37 -10 0 -57 c1 -68 13 -87 71
-108 80 -28 208 -55 234 -48 39 10 65 50 65 100 0 23 4 45 9 48 4 3 33 -12 62
-34 75 -55 158 -97 205 -105 21 -3 49 -8 62 -11 l23 -5 -21 -26 c-25 -32 -26
-64 -2 -91 24 -28 233 -86 278 -77 43 8 64 29 64 66 0 20 5 29 16 29 20 0 244
-159 244 -173 0 -6 -9 -21 -21 -33 -36 -38 -27 -49 169 -206 55 -44 132 -73
169 -63 15 3 38 15 51 26 22 17 28 18 46 6 35 -23 142 -157 166 -207 l22 -47
-27 -42 c-34 -50 -30 -83 18 -150 19 -25 49 -74 67 -109 48 -91 70 -106 147
-98 57 5 65 3 93 -20 41 -35 96 -153 125 -271 33 -130 32 -147 -11 -209 -43
-62 -45 -27 24 -419 64 -361 102 -610 102 -669 0 -43 -2 -45 -51 -76 -59 -36
-589 -427 -604 -446 -13 -16 -221 -167 -312 -228 -40 -26 -73 -50 -73 -53 0
-3 68 -77 151 -164 l150 -158 202 197 c111 108 282 276 379 373 135 133 178
170 178 154 0 -72 -25 -254 -45 -336 -50 -198 -141 -422 -232 -572 -142 -236
-447 -564 -633 -684 -331 -212 -560 -327 -835 -418 -400 -133 -739 -184 -1144
-172 -268 8 -495 41 -721 105 l-65 19 -3 349 -2 350 237 -4 c145 -2 275 0 333
8 52 6 165 15 250 20 454 28 788 163 1077 435 147 139 253 287 348 490 71 153
81 180 114 345 41 198 51 290 51 455 -1 576 -218 1039 -609 1300 -182 121
-313 175 -515 212 -96 18 -375 24 -451 10 l-40 -8 35 18 c54 28 120 96 120
124 0 57 -146 149 -236 149 -61 0 -235 -57 -294 -96 -62 -41 -74 -110 -27
-162 29 -32 77 -42 207 -43 94 -1 108 -3 75 -10 -136 -31 -268 -91 -324 -147
-70 -69 -95 -119 -94 -190 l1 -63 -27 23 c-89 79 -174 173 -191 211 -26 59
-50 153 -50 199 0 53 -18 85 -54 98 -26 9 -35 7 -58 -10 -15 -11 -30 -20 -33
-20 -15 0 5 198 24 228 5 8 18 6 48 -9 38 -18 44 -19 76 -5 21 8 38 24 42 38
4 12 29 55 55 94 59 86 67 112 46 153 -17 31 -33 38 -96 43 -58 5 -52 37 24
140 70 95 100 161 101 220 0 30 3 37 15 32 36 -16 81 -16 106 1 60 39 94 187
59 254 -15 31 -33 41 -71 41 -53 0 -18 30 127 109 53 29 123 77 155 107 32 29
62 53 66 54 4 0 11 -17 14 -39z m-2701 -446 c9 -60 25 -153 36 -205 14 -69 19
-137 19 -247 0 -84 -3 -153 -6 -153 -3 0 -25 17 -50 37 l-44 37 1 451 c2 438
2 446 15 320 7 -71 21 -179 29 -240z m-1085 -109 c17 -33 54 -73 120 -130 52
-44 104 -91 115 -102 22 -24 412 -346 527 -436 40 -32 96 -79 123 -105 28 -27
67 -62 89 -80 l38 -31 -43 -27 c-24 -15 -57 -36 -72 -47 -48 -34 -408 -248
-512 -305 -55 -30 -126 -73 -157 -94 -32 -21 -61 -39 -66 -39 -8 0 -62 111
-118 242 -54 126 -123 353 -157 513 -30 143 -31 161 -31 375 0 249 9 310 76
494 l33 89 5 -134 c4 -117 8 -140 30 -183z m1237 -578 c-1 -3 -18 8 -37 25
l-35 32 3 90 4 90 34 -115 c18 -63 32 -118 31 -122z m2689 -156 c7 -4 -27 -8
-75 -9 -55 -1 -79 2 -66 7 25 11 126 12 141 2z m-169 -18 c-3 -3 -12 -4 -19
-1 -8 3 -5 6 6 6 11 1 17 -2 13 -5z m261 -36 c33 -16 36 -49 5 -63 -25 -10
-31 -35 -10 -35 7 0 24 8 37 17 l25 16 -25 -27 c-67 -75 -175 -102 -353 -90
-85 6 -103 10 -128 31 -21 18 -29 33 -28 56 l0 32 12 -35 c15 -43 33 -41 29 4
-2 18 3 37 10 43 18 15 129 53 186 63 62 12 205 4 240 -12z m-936 -225 l5 -52
-33 42 -32 42 21 23 c26 28 33 18 39 -55z m-1815 -84 c92 -78 179 -149 193
-157 14 -9 46 -35 71 -59 36 -35 45 -50 41 -69 -5 -25 14 -33 34 -15 5 6 34
-11 76 -46 l68 -55 -37 -52 c-88 -121 -224 -293 -255 -322 -88 -83 -264 -223
-363 -289 -125 -83 -283 -175 -302 -175 -14 0 -74 68 -180 206 -187 242 -294
402 -369 553 l-42 84 22 18 c32 25 303 188 356 213 45 22 189 108 395 237 61
38 113 69 117 69 4 0 82 -64 175 -141z m3150 46 c211 -34 367 -102 576 -252
54 -38 164 -156 219 -233 180 -252 292 -591 287 -865 l-2 -60 -8 63 c-11 87
-52 226 -98 333 -67 154 -212 347 -349 462 -80 67 -207 154 -275 189 -142 72
-358 129 -538 143 -244 18 -514 -59 -654 -187 l-52 -48 -27 59 c-36 81 -35
142 4 199 35 53 57 70 137 111 74 37 177 66 299 85 121 19 367 20 481 1z
m-367 -289 c0 -7 -346 -296 -354 -296 -4 0 -34 18 -67 41 -67 45 -67 48 0 104
77 63 193 114 321 140 71 14 100 17 100 11z m640 -109 c183 -82 380 -243 506
-412 111 -148 177 -295 219 -483 57 -253 54 -585 -5 -764 -36 -107 -127 -286
-205 -404 -81 -121 -274 -314 -386 -387 -163 -105 -329 -176 -507 -218 -118
-27 -126 -24 -47 21 150 84 283 219 343 348 71 155 106 374 83 522 -16 104
-64 242 -113 324 -55 93 -164 206 -263 272 -45 30 -85 54 -89 54 -4 0 -36 14
-71 30 -89 42 -224 86 -352 115 -60 14 -163 40 -230 58 l-121 32 61 56 c79 72
375 320 418 350 48 34 206 165 259 215 108 102 367 313 385 313 11 1 63 -18
115 -42z m-2702 -252 c114 -96 218 -183 232 -195 243 -201 482 -399 507 -421
l32 -28 -57 -11 c-168 -33 -385 -111 -507 -182 -122 -72 -148 -91 -242 -181
l-92 -89 -41 81 c-22 45 -42 81 -44 81 -2 0 9 -41 25 -90 34 -106 35 -114 10
-148 -10 -15 -33 -55 -50 -89 l-32 -63 -37 16 c-33 13 -201 101 -210 109 -4 4
-102 474 -102 488 0 4 -4 6 -10 2 -5 -3 -37 35 -72 84 -35 50 -69 93 -76 96
-33 13 -19 -31 35 -107 33 -46 62 -88 66 -95 8 -13 -34 -55 -153 -150 l-74
-60 -79 65 c-43 36 -93 83 -110 105 -18 21 -47 57 -66 78 -19 22 -32 41 -30
42 2 2 58 34 124 71 127 73 267 167 351 238 229 192 219 181 402 426 42 56 80
102 85 102 4 0 101 -79 215 -175z m-2321 -330 c76 -150 170 -311 256 -439 l59
-89 -208 6 c-342 8 -650 77 -903 202 l-54 26 54 36 c93 62 576 351 621 371 24
11 52 27 63 35 26 21 27 19 112 -148z m3194 -401 c45 -47 105 -88 152 -103
l37 -13 -2 -265 -3 -266 -68 -19 c-38 -10 -87 -28 -110 -40 -75 -37 -177 -108
-193 -133 -20 -31 -38 -31 -179 0 -60 13 -150 32 -199 42 l-89 18 6 85 c7 109
39 235 83 327 32 68 145 223 162 223 4 0 37 21 73 48 79 58 183 110 241 121
24 5 45 9 49 10 3 1 21 -15 40 -35z m692 0 c213 -53 360 -128 476 -243 98 -96
135 -151 156 -232 33 -124 -11 -212 -140 -280 -68 -36 -204 -75 -219 -63 -86
65 -177 115 -257 142 -107 35 -274 57 -361 47 l-58 -6 0 259 0 258 53 22 c28
12 81 47 117 77 74 62 64 61 233 19z m-994 -42 c-25 -16 -60 -42 -79 -59 -19
-16 -43 -34 -52 -39 -31 -17 -117 -134 -152 -207 -50 -105 -74 -198 -83 -317
l-8 -106 -75 24 -76 23 -67 135 c-37 74 -67 139 -67 145 0 21 155 171 235 228
86 61 190 112 345 167 117 41 137 42 79 6z m-1211 -109 l9 -41 -201 -180
c-110 -99 -239 -217 -286 -262 -47 -45 -116 -107 -155 -138 -97 -78 -452 -396
-497 -446 l-38 -41 -30 34 -29 35 62 59 c92 88 334 305 397 357 69 56 308 270
312 279 9 20 438 393 445 387 1 -1 6 -20 11 -43z m2725 11 c26 -7 69 -25 95
-40 230 -133 359 -277 429 -479 26 -75 27 -91 28 -245 0 -186 -15 -259 -82
-400 -72 -151 -279 -317 -473 -380 -153 -49 -384 -80 -600 -80 -212 0 -618 37
-864 78 l-99 17 -156 311 c-173 345 -273 555 -268 560 2 2 53 -12 114 -30 137
-43 343 -88 533 -118 193 -30 628 -33 810 -4 243 37 392 79 540 149 121 58
185 158 178 274 -7 115 -125 298 -253 392 -28 21 -29 22 -5 15 14 -4 46 -13
73 -20z m-2692 -173 c7 -36 28 -16 -511 -496 -129 -115 -321 -287 -427 -382
-190 -171 -192 -173 -207 -151 -9 12 -16 28 -16 35 0 11 442 415 534 488 21
17 72 63 115 102 194 182 487 441 496 439 5 -1 12 -17 16 -35z m31 -158 c3
-30 -7 -40 -162 -177 -91 -80 -190 -166 -220 -192 -30 -25 -89 -79 -130 -119
-87 -84 -479 -436 -527 -472 -32 -24 -34 -25 -59 -9 -14 10 -24 21 -22 25 2 4
134 125 293 269 160 143 313 281 340 307 161 149 471 413 476 407 4 -4 9 -21
11 -39z m479 -118 c15 -47 23 -85 18 -85 -9 0 -112 39 -117 45 -5 5 58 125 66
125 4 0 19 -38 33 -85z m-300 -19 c46 -24 144 -68 217 -97 110 -43 136 -57
144 -78 13 -35 204 -638 230 -729 12 -39 19 -74 16 -77 -6 -7 -203 54 -337
104 -58 22 -126 45 -149 52 -28 8 -47 20 -52 34 -10 26 -106 510 -116 580 -3
28 -15 92 -25 144 -20 97 -22 111 -15 111 2 0 41 -20 87 -44z m-148 -3 c6 -33
2 -42 -26 -71 -17 -18 -56 -52 -86 -75 -51 -40 -317 -278 -564 -505 -62 -57
-146 -131 -187 -164 -41 -34 -94 -79 -117 -101 l-42 -40 -20 24 c-11 13 -20
29 -20 34 0 6 26 30 57 55 65 51 435 381 440 392 5 11 252 231 334 297 40 33
105 89 143 125 39 36 73 65 76 66 4 0 9 -17 12 -37z m1993 -94 c61 -11 155
-42 235 -78 43 -19 87 -56 78 -65 -17 -17 -432 -66 -561 -66 l-38 0 0 110 0
110 113 0 c62 0 140 -5 173 -11z m-386 -110 l0 -101 -72 6 c-135 12 -248 29
-248 37 0 34 231 155 303 158 15 1 17 -10 17 -100z m-1576 49 c4 -20 2 -36 -6
-43 -7 -7 -123 -110 -258 -230 -135 -120 -286 -257 -336 -304 -85 -80 -328
-293 -360 -316 -10 -7 -18 -3 -31 15 -10 14 -18 28 -18 31 0 5 118 109 265
234 39 33 104 92 143 131 154 151 567 512 588 514 4 0 9 -14 13 -32z m26 -117
c0 -5 3 -22 6 -38 5 -28 -7 -41 -261 -268 -147 -132 -279 -247 -294 -256 -15
-9 -38 -29 -52 -45 -13 -16 -89 -87 -168 -158 l-143 -130 -19 25 c-10 13 -18
29 -18 34 0 6 70 71 155 145 85 74 162 143 173 153 69 67 607 546 614 546 4 1
7 -3 7 -8z m629 -158 c32 -65 62 -129 66 -143 4 -14 135 -276 291 -582 156
-307 284 -561 284 -565 0 -8 -195 -126 -216 -131 -8 -2 -26 40 -49 115 -20 65
-48 152 -61 193 -79 242 -254 804 -254 815 0 6 -29 102 -64 213 -35 111 -62
202 -60 202 2 0 30 -53 63 -117z m-591 -57 c-3 -14 -309 -291 -368 -335 -42
-31 -288 -249 -292 -260 -2 -4 -49 -49 -105 -99 l-101 -92 -22 30 c-12 17 -21
32 -19 34 19 12 228 204 279 254 36 36 94 88 130 116 35 28 159 136 274 239
l211 188 8 -31 c4 -18 7 -38 5 -44z m21 -144 c1 -25 -58 -86 -179 -185 -95
-78 -445 -389 -485 -431 -16 -18 -54 -54 -84 -81 l-53 -50 -23 29 -23 29 51
46 c29 25 72 66 97 90 69 68 326 299 405 363 39 31 117 100 175 151 109 98
117 101 119 39z m30 -147 c0 -27 -36 -62 -310 -305 -171 -151 -337 -301 -369
-332 -32 -32 -63 -58 -69 -58 -6 0 -17 11 -26 24 -15 22 -13 25 42 81 82 81
579 526 611 546 15 9 45 35 66 58 43 44 56 41 55 -14z m30 -128 c8 -32 5 -37
-58 -99 -82 -80 -448 -409 -516 -462 -28 -22 -67 -56 -88 -75 l-38 -36 -20 24
c-10 13 -19 27 -19 31 0 5 24 28 53 51 75 63 607 541 641 578 16 17 31 29 34
27 2 -3 7 -20 11 -39z m132 7 c35 -15 156 -57 269 -94 l205 -67 68 -214 c37
-118 72 -227 77 -242 l9 -29 -27 18 c-15 10 -47 30 -72 44 -96 54 -344 271
-451 395 -97 113 -166 215 -146 215 2 0 32 -12 68 -26z m-99 -164 c4 -28 -4
-39 -81 -114 -101 -97 -263 -243 -341 -306 -30 -24 -94 -79 -141 -122 l-86
-77 -22 22 c-11 13 -21 26 -21 30 0 9 69 72 145 133 88 71 326 284 432 387 51
49 96 86 101 83 6 -3 12 -19 14 -36z m1123 -99 c83 -11 178 -23 213 -26 l62
-7 0 -339 0 -339 -70 26 c-39 14 -93 35 -120 48 -50 23 -50 23 -28 39 l23 15
-152 300 c-84 164 -153 303 -153 307 0 4 17 5 38 1 20 -3 105 -15 187 -25z
m-1092 -53 c4 -31 -2 -40 -106 -138 -60 -58 -120 -112 -133 -121 -13 -8 -98
-82 -190 -163 l-166 -149 -26 26 c-14 15 -24 28 -21 30 2 2 69 60 149 130 80
70 170 148 200 174 30 25 104 93 164 149 60 57 112 102 116 99 4 -3 10 -19 13
-37z m30 -155 c6 -28 1 -35 -39 -70 -25 -21 -86 -77 -137 -124 -51 -47 -154
-141 -230 -209 l-138 -123 -17 24 c-9 13 -17 28 -17 34 0 13 559 514 566 506
4 -3 9 -20 12 -38z m30 -140 c6 -36 4 -40 -61 -98 -37 -33 -105 -96 -152 -141
-121 -116 -266 -244 -276 -244 -10 1 -48 50 -42 54 19 13 309 275 328 296 31
35 183 170 191 170 4 0 9 -17 12 -37z m32 -150 c6 -35 4 -40 -42 -82 -26 -24
-104 -97 -173 -161 -69 -64 -147 -136 -173 -161 l-49 -43 -19 24 c-10 14 -19
28 -19 31 0 4 44 46 98 95 53 49 133 123 177 165 125 119 179 169 186 169 4 0
10 -17 14 -37z m33 -188 c-2 -7 -57 -62 -124 -122 -66 -59 -131 -118 -145
-131 -13 -12 -45 -40 -71 -63 l-46 -40 -21 29 -20 29 70 58 c39 33 78 68 87
80 10 11 71 69 137 128 l120 107 8 -31 c4 -17 7 -37 5 -44z m28 -120 c8 -43 0
-52 -106 -137 -41 -33 -108 -92 -149 -131 l-73 -71 -19 23 c-11 13 -19 27 -19
31 0 12 338 319 352 320 4 0 10 -16 14 -35z m32 -175 c-2 -9 -66 -73 -143
-142 -144 -130 -151 -133 -175 -87 -8 14 9 34 98 115 59 53 130 114 157 134
48 36 50 37 58 17 4 -12 7 -28 5 -37z m31 -141 c1 -20 -16 -41 -76 -95 -43
-38 -95 -84 -116 -103 -36 -33 -38 -33 -57 -16 -11 10 -20 24 -20 31 0 7 57
64 128 127 132 120 139 123 141 56z m33 -144 c3 -27 -7 -39 -87 -112 l-90 -82
-22 21 c-13 12 -23 25 -23 29 0 15 203 190 211 182 4 -4 9 -22 11 -38z m31
-152 c6 -29 1 -36 -59 -88 l-65 -58 -25 24 -26 24 78 72 c44 40 82 69 85 65 4
-4 9 -21 12 -39z m30 -150 c4 -23 2 -39 -4 -41 -5 -2 -23 -15 -39 -29 l-30
-25 -19 24 -20 23 42 43 c23 23 46 42 53 42 6 0 14 -17 17 -37z m30 -140 c4
-21 10 -54 13 -73 l7 -35 -41 50 -40 50 21 23 c28 30 33 28 40 -15z"/>
<path d="M24017 12550 c-22 -18 -27 -30 -27 -65 0 -60 32 -142 91 -229 107
-161 202 -198 259 -103 11 18 20 44 20 59 0 35 -39 120 -82 180 -106 147 -201
205 -261 158z m63 -19 c0 -5 -9 -12 -19 -16 -24 -7 -35 -38 -26 -72 6 -24 71
-145 123 -228 18 -28 20 -36 8 -25 -29 23 -99 131 -123 190 -25 60 -31 145
-10 153 21 9 47 7 47 -2z m60 -67 c41 -37 109 -149 135 -224 17 -48 8 -70 -29
-70 -30 0 -55 30 -101 120 -21 41 -49 91 -62 110 -34 51 -30 95 9 99 5 1 26
-15 48 -35z m31 19 c13 -16 12 -17 -3 -4 -17 13 -22 21 -14 21 2 0 10 -8 17
-17z m119 -160 c42 -70 50 -128 20 -165 -15 -20 -30 -28 -53 -28 l-32 1 40 14
c22 8 41 15 43 15 1 0 2 17 2 38 0 40 -52 160 -97 222 -23 33 -22 33 10 -4 19
-22 49 -63 67 -93z"/>
<path d="M24154 12366 c-6 -16 25 -76 38 -76 12 0 10 35 -4 65 -13 28 -26 32
-34 11z"/>
<path d="M24870 11424 c-51 -63 -98 -118 -105 -120 -30 -12 -320 -360 -393
-474 -35 -54 -141 -284 -187 -405 -12 -33 -34 -85 -48 -116 -14 -30 -39 -102
-57 -160 -17 -57 -47 -146 -66 -196 -39 -106 -38 -103 -21 -103 14 0 63 126
102 260 52 180 244 621 319 733 65 96 210 272 335 407 127 136 240 273 235
282 -11 17 -24 4 -114 -108z"/>
<path d="M25304 11492 c-23 -20 -68 -68 -100 -107 -54 -64 -103 -112 -143
-142 -12 -9 -13 -14 -4 -24 12 -12 79 50 236 221 72 78 79 115 11 52z"/>
<path d="M24979 11238 c-294 -291 -424 -516 -436 -753 -7 -125 12 -275 34
-275 12 0 14 7 9 28 -14 61 -19 282 -7 342 37 188 166 385 413 631 131 131
153 159 128 159 -4 0 -68 -60 -141 -132z"/>
<path d="M25080 10677 c-67 -24 -120 -54 -120 -66 0 -19 15 -17 58 9 26 16 59
32 74 35 l27 7 -34 -37 c-66 -69 -82 -194 -36 -282 42 -82 116 -125 216 -126
99 0 162 36 213 123 23 38 26 55 26 130 0 90 -8 116 -53 163 l-26 29 30 -8
c34 -8 99 -50 132 -85 49 -53 56 -131 19 -196 -27 -47 -16 -72 14 -33 43 56
50 133 19 197 -51 106 -161 154 -364 160 -117 3 -136 1 -195 -20z m176 -61
c18 -14 18 -15 1 -43 -44 -69 -60 -115 -54 -165 4 -27 14 -62 24 -79 16 -26
16 -31 3 -40 -8 -5 -26 -8 -40 -7 -21 3 -29 13 -48 68 -33 95 -21 159 45 248
27 35 40 39 69 18z"/>
<path d="M24456 10493 c-13 -100 22 -336 65 -432 32 -74 98 -131 149 -131 30
0 20 21 -17 34 -103 37 -154 170 -168 441 -7 129 -18 165 -29 88z"/>
<path d="M25544 10419 c6 -42 2 -64 -20 -123 -15 -39 -37 -79 -48 -90 -34 -29
-133 -76 -163 -76 -46 0 -165 30 -212 53 -44 22 -106 92 -117 135 -6 22 -34
32 -34 12 0 -23 43 -93 79 -129 41 -41 83 -59 203 -87 88 -20 120 -15 212 38
56 32 72 54 116 167 20 51 20 74 4 134 -3 9 -10 17 -16 17 -7 0 -8 -17 -4 -51z"/>
<path d="M21736 9231 c-38 -8 -44 -28 -12 -37 34 -8 76 3 76 20 0 11 -26 30
-33 25 -1 -1 -15 -4 -31 -8z"/>
<path d="M21575 9222 c-30 -4 -48 -19 -39 -34 8 -13 58 -9 78 5 24 18 2 34
-39 29z"/>
<path d="M21382 9189 c-37 -14 -21 -34 24 -31 43 4 60 14 50 31 -9 13 -42 13
-74 0z"/>
<path d="M21213 9150 c-13 -5 -23 -17 -23 -26 0 -13 7 -16 36 -11 39 7 67 24
58 38 -7 11 -42 11 -71 -1z"/>
<path d="M21053 9095 c-55 -24 -36 -57 20 -34 34 14 49 28 41 41 -7 11 -24 9
-61 -7z"/>
<path d="M20892 9024 c-23 -16 -30 -44 -12 -44 22 0 70 31 70 45 0 20 -30 19
-58 -1z"/>
<path d="M20738 8939 c-33 -24 -36 -39 -8 -39 27 0 70 29 70 46 0 20 -31 17
-62 -7z"/>
<path d="M20596 8849 c-28 -22 -35 -49 -12 -49 20 0 66 39 66 56 0 20 -23 17
-54 -7z"/>
<path d="M20453 8741 c-27 -22 -30 -41 -8 -41 23 0 65 30 65 46 0 20 -31 17
-57 -5z"/>
<path d="M20322 8637 c-24 -26 -29 -57 -9 -57 19 0 70 57 63 69 -11 17 -31 13
-54 -12z"/>
<path d="M20212 8507 c-12 -13 -22 -31 -22 -40 0 -27 28 -19 45 13 27 53 15
67 -23 27z"/>
<path d="M20106 8373 c-28 -30 -34 -63 -12 -63 15 0 56 50 56 68 0 23 -20 21
-44 -5z"/>
<path d="M20000 8218 c-24 -39 -25 -58 -5 -58 16 0 55 55 55 78 0 24 -31 12
-50 -20z"/>
<path d="M19926 8084 c-19 -18 -31 -62 -21 -72 4 -4 18 7 31 23 37 47 29 88
-10 49z"/>
<path d="M19853 7938 c-31 -42 -34 -102 -4 -84 27 17 45 96 21 96 -4 0 -12 -6
-17 -12z"/>
<path d="M19780 7745 c-7 -20 -9 -43 -6 -52 6 -15 8 -15 22 -2 8 9 17 32 21
52 8 50 -21 51 -37 2z"/>
<path d="M19733 7571 c-11 -41 -3 -68 16 -57 13 8 32 76 25 88 -12 20 -32 5
-41 -31z"/>
<path d="M19712 7428 c-13 -13 -16 -70 -5 -81 13 -13 33 16 33 49 0 37 -11 49
-28 32z"/>
<path d="M19684 7246 c-9 -36 -1 -71 16 -71 11 0 16 13 18 48 2 37 0 47 -12
47 -9 0 -18 -11 -22 -24z"/>
<path d="M19687 7083 c-12 -12 -7 -70 6 -82 20 -16 27 -4 27 46 0 41 -14 56
-33 36z"/>
<path d="M19695 6910 c-11 -18 5 -90 21 -90 20 0 25 18 16 59 -8 36 -25 50
-37 31z"/>
<path d="M19720 6717 c0 -42 25 -79 39 -58 5 8 8 19 6 25 -2 6 -6 23 -9 39 -9
40 -36 35 -36 -6z"/>
<path d="M19763 6539 c6 -46 19 -65 37 -54 12 8 4 62 -12 83 -20 24 -31 12
-25 -29z"/>
<path d="M19810 6396 c0 -26 22 -75 36 -80 22 -9 26 16 9 57 -15 36 -45 51
-45 23z"/>
<path d="M19880 6231 c0 -28 20 -69 37 -75 23 -9 26 21 6 56 -22 38 -43 48
-43 19z"/>
<path d="M19960 6085 c0 -26 30 -75 45 -75 18 0 19 23 4 53 -20 36 -49 49 -49
22z"/>
<path d="M20074 5960 c-73 -29 -70 -143 3 -171 53 -20 123 29 123 86 0 29 -28
71 -55 83 -30 14 -42 14 -71 2z"/>
<path d="M26125 7703 c-16 -9 -35 -22 -43 -29 -7 -8 -24 -14 -36 -14 -43 0
-90 -42 -108 -95 -44 -129 8 -289 108 -331 78 -33 186 -7 261 61 69 62 95 114
100 205 4 68 2 80 -24 129 -36 70 -74 91 -163 91 -40 -1 -76 -7 -95 -17z m193
-31 c62 -40 84 -185 41 -267 -40 -77 -119 -139 -201 -159 -50 -12 -110 9 -149
53 -58 65 -77 176 -43 260 19 49 50 70 111 76 l48 6 -30 -15 c-16 -8 -42 -17
-57 -21 -35 -7 -59 -43 -66 -100 -9 -85 66 -196 142 -211 74 -13 214 80 231
154 12 57 -32 173 -81 211 -22 18 -35 20 -80 15 -60 -7 -71 0 -21 15 41 12
124 3 155 -17z m-52 -57 c32 -42 53 -98 54 -142 0 -42 -47 -96 -111 -129 -74
-37 -105 -33 -155 21 -78 84 -74 203 8 219 18 3 56 19 83 36 66 39 88 38 121
-5z"/>
<path d="M26114 7537 c-7 -20 23 -90 38 -85 40 14 32 90 -10 96 -12 2 -24 -3
-28 -11z m46 -39 c0 -19 -2 -20 -10 -8 -13 19 -13 30 0 30 6 0 10 -10 10 -22z"/>
<path d="M25709 7640 c-15 -11 -35 -32 -45 -47 -17 -27 -16 -27 20 5 56 48 73
44 75 -20 1 -71 -20 -141 -81 -262 -82 -163 -205 -268 -224 -190 -16 64 31
244 82 311 25 33 71 69 78 62 2 -2 -20 -35 -49 -74 -47 -61 -78 -124 -54 -109
5 3 41 48 80 100 40 52 92 113 117 134 25 22 38 40 31 40 -16 0 -51 -21 -89
-55 -14 -12 -36 -22 -48 -23 -39 -2 -68 -28 -106 -96 -37 -67 -76 -195 -76
-250 0 -43 20 -79 53 -94 29 -14 31 -17 41 -64 4 -16 11 -28 16 -28 14 0 12
41 -4 69 -13 23 -11 26 28 56 68 52 129 145 196 300 22 49 40 133 40 180 0 75
-28 94 -81 55z"/>
<path d="M25790 7653 c0 -12 43 -53 57 -53 14 0 47 39 39 47 -3 4 -12 1 -18
-5 -17 -17 -38 -15 -60 5 -10 9 -18 12 -18 6z"/>
<path d="M26660 7549 c-62 -12 -120 -56 -152 -114 -34 -61 -36 -113 -7 -173
26 -52 68 -85 193 -148 85 -43 97 -46 139 -40 56 9 118 53 162 115 26 37 30
51 30 110 0 58 -4 73 -32 117 -18 27 -46 60 -63 72 -74 55 -182 79 -270 61z
m203 -53 c127 -61 176 -204 103 -301 -41 -54 -91 -87 -140 -92 -39 -5 -55 1
-152 53 -130 71 -164 110 -164 186 0 79 57 152 140 177 57 17 149 7 213 -23z"/>
<path d="M26659 7484 c-128 -39 -167 -192 -68 -266 38 -29 187 -88 220 -88 35
0 88 31 116 66 57 75 49 165 -20 232 -69 66 -154 85 -248 56z m200 -48 c102
-65 102 -209 1 -261 -41 -21 -69 -19 -149 14 -128 52 -157 83 -147 154 8 49
53 102 102 117 53 17 146 5 193 -24z"/>
<path d="M26736 7388 c-40 -22 -5 -112 42 -106 22 2 28 9 30 35 6 56 -32 94
-72 71z m46 -46 c3 -9 3 -23 0 -30 -7 -20 -32 6 -32 34 0 27 25 24 32 -4z"/>
<path d="M25466 7205 c-5 -26 -3 -44 9 -61 8 -13 16 -24 18 -24 1 0 1 26 0 57
-1 66 -17 81 -27 28z"/>
<path d="M25945 7190 c-16 -5 -46 -14 -65 -20 -19 -7 -54 -19 -77 -27 -52 -18
-115 -85 -131 -141 -26 -85 -10 -174 40 -219 28 -26 154 -73 195 -73 37 0 131
44 166 78 35 34 67 135 67 216 0 130 -87 213 -195 186z m90 -34 c19 -8 44 -30
55 -48 18 -29 21 -45 17 -123 -4 -99 -23 -149 -74 -196 -54 -50 -121 -60 -213
-33 -119 35 -168 146 -112 259 29 60 96 115 140 115 11 0 39 9 63 20 53 23 78
25 124 6z"/>
<path d="M25872 7101 c-92 -32 -100 -37 -86 -50 5 -6 32 0 68 15 32 14 80 28
106 31 40 5 51 2 70 -17 20 -20 22 -30 18 -91 -4 -81 -24 -114 -88 -146 -65
-34 -157 -26 -201 18 -23 23 -25 84 -5 134 14 32 12 45 -5 45 -10 0 -39 -88
-39 -121 0 -66 38 -103 120 -119 152 -29 261 71 248 228 -9 101 -68 122 -206
73z"/>
<path d="M25882 7018 c-17 -17 -15 -73 2 -88 41 -34 88 17 67 73 -11 29 -47
37 -69 15z m48 -44 c0 -19 -5 -25 -17 -22 -24 4 -28 35 -6 41 10 3 19 5 21 6
1 0 2 -11 2 -25z"/>
<path d="M26392 7046 c-57 -26 -153 -108 -180 -156 -23 -39 -27 -56 -27 -125
1 -65 6 -91 27 -137 55 -120 161 -186 312 -196 107 -7 178 10 228 56 62 56 72
83 73 197 0 88 -3 107 -27 157 -36 77 -108 152 -177 184 -69 33 -178 43 -229
20z m213 -45 c148 -70 234 -247 192 -392 -31 -105 -101 -148 -238 -149 -107 0
-174 19 -237 70 -66 51 -103 126 -110 220 -6 87 18 142 86 196 l47 38 -32 -35
c-37 -40 -69 -107 -79 -166 -16 -104 64 -232 172 -272 80 -30 171 -43 218 -30
86 23 155 141 144 244 -12 100 -95 217 -190 266 -54 29 -148 32 -195 7 -18 -9
-33 -14 -33 -12 0 2 15 13 33 24 50 31 146 27 222 -9z m-37 -37 c165 -82 225
-303 113 -415 -48 -48 -88 -56 -186 -35 -97 19 -166 62 -203 125 -36 61 -38
164 -5 226 62 116 170 154 281 99z"/>
<path d="M26450 6777 c-32 -16 -34 -29 -10 -60 28 -35 66 -36 82 -1 21 45 -26
84 -72 61z m50 -37 c0 -22 -20 -26 -38 -8 -19 19 -14 28 13 28 18 0 25 -5 25
-20z"/>
<path d="M25566 6941 c-4 -6 -18 -11 -32 -11 -15 0 -24 -6 -24 -15 0 -19 40
-20 66 -1 14 11 16 18 8 26 -8 8 -14 9 -18 1z"/>
<path d="M25385 6898 c-56 -51 -113 -165 -149 -298 -43 -157 -32 -270 27 -270
32 -1 106 -36 113 -55 9 -23 26 -18 22 7 -2 12 -17 32 -34 43 l-31 21 24 30
c35 42 89 151 118 238 20 61 25 94 25 181 0 58 -5 115 -10 126 -17 31 -56 23
-105 -23z m89 -3 c3 -10 -1 -15 -13 -15 -33 0 -115 -114 -89 -122 7 -3 25 15
40 38 15 23 36 48 47 54 20 10 21 8 21 -60 0 -120 -95 -364 -160 -411 -68 -49
-98 -9 -81 106 23 154 88 313 159 388 38 39 66 47 76 22z"/>
<path d="M25324 6665 c-61 -106 -81 -207 -48 -254 23 -33 41 -11 19 23 -23 35
-12 90 36 184 22 42 39 79 39 84 0 21 -22 4 -46 -37z"/>
<path d="M25775 6526 c-5 -3 -22 -7 -37 -10 -16 -4 -28 -13 -28 -21 0 -20 40
-29 101 -23 55 6 80 21 62 39 -11 11 -80 21 -98 15z"/>
<path d="M23491 5874 c-24 -31 -27 -54 -8 -54 20 0 47 33 47 58 0 29 -14 28
-39 -4z"/>
<path d="M23378 5733 c-25 -28 -27 -53 -4 -53 13 0 56 53 56 70 0 19 -26 10
-52 -17z"/>
<path d="M23258 5607 c-16 -13 -28 -28 -28 -34 0 -25 23 -24 51 3 50 48 30 75
-23 31z"/>
<path d="M23120 5485 c-17 -19 -21 -28 -13 -36 14 -14 73 24 73 47 0 22 -34
16 -60 -11z"/>
<path d="M22921 5431 c-24 -24 -28 -86 -8 -112 34 -44 83 -49 126 -13 24 20
31 34 31 62 -1 54 -21 74 -78 80 -41 4 -53 1 -71 -17z"/>
<path d="M23790 5707 c0 -15 187 -147 208 -147 33 0 3 35 -82 95 -92 64 -126
78 -126 52z"/>
<path d="M23660 5536 c0 -8 23 -32 50 -53 28 -21 69 -53 91 -70 23 -18 47 -33
55 -33 23 0 16 28 -12 47 -14 10 -55 42 -91 71 -66 53 -93 64 -93 38z"/>
<path d="M23520 5394 c0 -30 144 -184 172 -184 33 0 18 25 -65 108 -72 71
-107 97 -107 76z"/>
<path d="M23365 5250 c-7 -12 -8 -12 84 -122 61 -75 91 -95 91 -63 0 16 -147
195 -160 195 -5 0 -12 -5 -15 -10z"/>
<path d="M23010 4994 c0 -23 106 -200 124 -207 33 -13 24 17 -35 118 -56 96
-89 129 -89 89z"/>
<path d="M27055 19759 c-275 -26 -508 -48 -519 -48 -14 -1 -17 -6 -12 -23 6
-23 70 -332 220 -1058 41 -201 78 -387 82 -415 6 -48 49 -262 134 -675 22
-107 43 -206 46 -220 5 -18 21 29 59 175 221 833 390 1488 455 1753 23 96 64
255 91 355 27 100 49 187 49 194 0 19 -46 16 -605 -38z m525 -31 c-1 -36 -19
-41 -201 -59 -101 -10 -260 -23 -354 -29 -93 -6 -225 -17 -293 -23 -116 -12
-122 -12 -128 6 -3 10 -3 21 1 25 6 7 841 88 928 91 32 1 47 -3 47 -11z m-26
-95 c-4 -16 -8 -29 -9 -30 0 -2 -95 -12 -211 -23 -115 -12 -319 -32 -453 -45
-134 -14 -247 -22 -251 -20 -4 3 -10 18 -12 33 l-4 29 335 32 c185 18 390 36
456 40 66 5 128 9 138 10 14 1 16 -4 11 -26z m-27 -98 c-6 -19 -13 -35 -16
-35 -3 0 -192 -18 -420 -40 -228 -22 -422 -40 -432 -40 -11 0 -18 10 -21 30
-6 37 -45 30 452 79 504 49 450 49 437 6z m-23 -92 c-4 -16 -9 -31 -13 -35 -4
-4 -576 -63 -800 -81 -19 -2 -26 4 -32 27 -5 17 -7 31 -6 32 1 1 119 14 262
28 143 15 321 32 395 40 207 21 202 21 194 -11z m-20 -100 c-4 -16 -9 -31 -13
-34 -3 -3 -161 -20 -351 -38 -190 -18 -366 -35 -391 -38 -45 -5 -46 -5 -53 27
-3 18 -5 34 -4 35 5 4 723 73 771 74 47 1 47 1 41 -26z m-20 -90 c-4 -16 -10
-32 -15 -37 -7 -8 -412 -52 -666 -72 -72 -6 -83 -5 -83 9 0 8 -3 22 -6 30 -7
19 -9 19 421 61 187 19 343 34 348 35 4 0 4 -11 1 -26z m-28 -105 c-3 -17 -8
-33 -9 -35 -4 -3 -701 -72 -703 -70 -1 1 -5 16 -8 33 l-7 31 123 13 c68 6 224
22 348 35 124 12 233 23 244 24 16 1 18 -4 12 -31z m-22 -95 c-4 -16 -8 -31
-10 -35 -2 -3 -52 -9 -111 -12 -60 -4 -206 -16 -326 -27 -120 -12 -220 -19
-223 -17 -2 2 -5 15 -6 29 l-3 24 315 31 c406 41 372 40 364 7z m-29 -95 c-4
-18 -8 -34 -9 -34 0 -1 -139 -14 -308 -30 l-307 -29 -7 28 c-3 16 -4 31 -1 33
5 5 538 61 600 63 38 1 39 1 32 -31z m-24 -95 c-4 -14 -14 -30 -22 -34 -7 -4
-135 -19 -284 -33 -286 -27 -285 -27 -285 22 0 17 6 22 28 23 15 0 128 11 252
24 124 12 246 23 272 24 45 1 46 1 39 -26z m-26 -102 c-5 -24 -13 -31 -38 -35
-81 -13 -480 -47 -493 -42 -11 4 -21 53 -11 57 7 3 543 55 545 53 2 -1 1 -16
-3 -33z m-25 -92 c-5 -18 -11 -33 -13 -36 -3 -2 -110 -14 -238 -27 -166 -16
-236 -19 -241 -12 -12 18 -9 56 5 57 6 0 113 11 237 23 124 13 233 24 242 25
14 1 15 -4 8 -30z m-25 -101 c-4 -18 -8 -34 -9 -35 -3 -3 -439 -43 -442 -40
-2 2 -6 17 -10 33 l-6 30 209 21 c292 28 266 29 258 -9z m-27 -102 l-10 -33
-177 -17 c-236 -22 -228 -22 -233 14 -3 17 0 30 6 31 6 0 88 9 181 19 94 10
186 18 207 19 l36 1 -10 -34z m-18 -70 c0 -3 -4 -15 -9 -29 -9 -22 -16 -24
-153 -36 -78 -7 -159 -15 -179 -18 -35 -5 -37 -4 -41 26 -4 29 -2 31 26 32 17
1 83 7 146 14 124 13 210 18 210 11z m-30 -98 c0 -46 -13 -51 -142 -64 -185
-19 -185 -19 -191 14 -3 15 -3 29 0 32 2 3 77 12 166 21 89 9 163 17 165 18 1
0 2 -9 2 -21z m-26 -105 c-4 -16 -10 -32 -14 -36 -6 -7 -261 -38 -266 -33 -1
1 -4 16 -7 34 -5 26 -3 32 11 33 9 0 71 6 137 13 66 8 126 14 133 15 9 1 10
-7 6 -26z m-28 -105 c-3 -17 -7 -33 -9 -34 -4 -4 -219 -25 -222 -22 -1 2 -6
17 -9 34 l-7 31 103 10 c166 16 151 18 144 -19z m-22 -95 c-4 -16 -9 -31 -13
-35 -3 -4 -45 -10 -92 -14 l-86 -7 -7 28 c-4 15 -5 30 -2 33 6 6 110 19 169
21 36 1 37 0 31 -26z m-29 -100 c-9 -38 -12 -40 -82 -46 -56 -5 -62 -3 -67 17
-13 47 -6 50 113 54 42 2 43 1 36 -25z m-21 -90 c-8 -36 -30 -53 -70 -53 -32
0 -44 13 -44 50 0 16 9 20 58 23 31 2 58 4 60 5 1 1 0 -10 -4 -25z m-24 -80
c-1 -49 -53 -81 -64 -39 -11 40 -7 46 29 46 19 0 35 -3 35 -7z m-28 -108 c-2
-14 -8 -25 -13 -25 -5 0 -9 11 -9 25 0 14 6 25 14 25 9 0 12 -8 8 -25z"/>
<path d="M23029 18441 c-91 -43 -176 -82 -190 -86 -21 -7 -159 -73 -167 -80
-2 -2 41 -64 96 -137 55 -74 105 -146 112 -159 16 -30 170 -240 186 -254 10
-9 444 -598 469 -638 14 -22 396 -540 407 -552 11 -12 -3 28 -119 330 -194
507 -257 675 -288 765 -54 161 -327 875 -338 887 -2 1 -77 -33 -168 -76z m155
-53 c9 -24 68 -178 131 -343 63 -165 137 -357 164 -428 27 -70 53 -142 57
-160 3 -17 38 -113 76 -212 123 -322 120 -312 100 -289 -68 83 -156 200 -194
259 -43 66 -166 233 -487 660 -73 98 -143 194 -154 214 -12 20 -40 62 -64 93
-24 31 -43 60 -43 65 0 9 198 107 250 123 19 6 55 22 80 35 25 13 50 24 56 25
6 0 19 -19 28 -42z"/>
<path d="M25890 18189 c0 -8 192 -441 228 -515 17 -33 37 -83 45 -110 13 -43
164 -389 204 -469 8 -16 75 -165 148 -330 179 -402 243 -539 254 -543 5 -2 19
12 32 30 13 18 58 69 100 113 l78 80 -70 110 c-38 61 -76 124 -83 140 -15 34
-198 330 -250 403 -31 44 -263 415 -536 857 -136 220 -150 242 -150 234z"/>
<path d="M29583 14953 c-18 -7 -16 -40 3 -47 9 -3 33 -6 54 -6 51 0 70 8 70
30 0 10 -7 21 -16 24 -18 7 -93 7 -111 -1z"/>
<path d="M28864 14940 c-58 -24 -73 -109 -28 -154 46 -45 119 -33 150 25 38
74 -45 162 -122 129z"/>
<path d="M29355 14936 c-18 -13 -18 -16 -5 -30 12 -11 28 -13 70 -8 46 6 55
10 55 27 0 17 -8 20 -50 23 -33 2 -57 -2 -70 -12z"/>
<path d="M29807 14937 c-9 -24 6 -34 64 -40 66 -6 90 4 73 30 -14 24 -129 32
-137 10z"/>
<path d="M29145 14921 c-21 -4 -30 -12 -30 -26 0 -18 6 -20 59 -18 63 2 82 12
73 37 -7 17 -45 19 -102 7z"/>
<path d="M30044 14916 c-10 -25 5 -35 67 -42 45 -5 57 -3 62 9 9 23 -12 35
-71 43 -43 5 -53 4 -58 -10z"/>
<path d="M30269 14884 c-19 -23 7 -40 73 -49 83 -12 93 35 10 49 -20 4 -44 9
-53 12 -9 2 -22 -3 -30 -12z"/>
<path d="M20900 13809 c-36 -17 -186 -82 -335 -146 -148 -63 -293 -125 -321
-139 -96 -44 -704 -304 -713 -304 -12 0 -553 -232 -549 -235 2 -2 1983 32
1996 35 6 1 1 820 -5 820 -5 0 -37 -14 -73 -31z m20 -394 c0 -328 0 -335 -20
-335 -20 0 -20 7 -20 325 0 298 1 325 18 334 9 6 18 11 20 11 1 0 2 -151 2
-335z m-100 -25 l0 -310 -25 0 -25 0 0 300 c0 274 1 300 18 309 9 6 20 11 25
11 4 0 7 -139 7 -310z m-110 -25 l0 -285 -25 0 -25 0 0 279 c0 214 3 281 13
284 37 15 37 15 37 -278z m-120 -30 l0 -265 -25 0 -25 0 0 259 c0 275 -2 263
43 270 4 0 7 -118 7 -264z m-110 -20 l0 -245 -25 0 -25 0 0 233 c0 233 0 234
23 245 12 6 23 11 25 11 1 1 2 -109 2 -244z m-120 -25 l0 -220 -25 0 -25 0 0
208 c0 207 0 209 23 220 12 6 23 11 25 11 1 1 2 -98 2 -219z m-110 -25 c0
-188 -1 -195 -20 -195 -19 0 -20 7 -20 185 0 165 2 185 18 194 9 6 18 11 20
11 1 0 2 -88 2 -195z m-100 -25 l0 -170 -25 0 -25 0 0 160 c0 141 2 160 18
169 9 6 20 11 25 11 4 0 7 -76 7 -170z m-120 -30 l0 -150 -25 0 -25 0 0 140
c0 122 2 140 18 149 9 6 20 11 25 11 4 0 7 -67 7 -150z m-110 -25 l0 -125 -25
0 -25 0 0 119 c0 124 0 123 43 130 4 0 7 -55 7 -124z m-120 -25 l0 -100 -25 0
c-25 0 -25 1 -25 90 0 74 3 91 18 99 9 6 20 11 25 11 4 0 7 -45 7 -100z m-110
-20 c0 -79 0 -80 -25 -80 -24 0 -25 2 -25 74 0 73 4 83 38 85 9 1 12 -21 12
-79z m-110 -25 c0 -52 -1 -55 -25 -55 -23 0 -25 3 -25 49 0 30 5 51 13 54 32
13 37 7 37 -48z m-110 -25 c0 -36 -2 -40 -25 -40 -21 0 -25 5 -25 28 0 25 17
43 48 51 1 1 2 -17 2 -39z m-110 -25 c0 -10 -10 -15 -32 -15 l-33 1 25 14 c32
18 40 18 40 0z"/>
<path d="M33028 10525 c-55 -31 -63 -84 -20 -151 26 -41 54 -55 67 -34 3 6 15
10 25 10 29 0 70 56 70 95 0 70 -80 115 -142 80z"/>
<path d="M32974 10203 c-23 -56 -24 -98 0 -98 13 0 24 15 38 53 11 29 17 60
14 67 -10 27 -35 16 -52 -22z"/>
<path d="M20270 10154 c-657 -18 -1230 -33 -1273 -33 l-77 -1 5 -27 c3 -16 24
-99 47 -185 28 -110 45 -158 55 -158 8 0 348 56 756 124 408 68 774 127 812
131 61 6 1054 168 1095 179 33 8 -278 2 -1420 -30z"/>
<path d="M32890 9988 c-28 -46 -35 -78 -20 -88 7 -5 18 -6 25 -4 14 6 56 104
49 115 -11 18 -35 8 -54 -23z"/>
<path d="M32807 9806 c-39 -39 -58 -134 -24 -124 13 5 66 95 67 114 0 18 -28
25 -43 10z"/>
<path d="M21797 9793 c-12 -11 -8 -251 4 -259 21 -13 29 21 29 132 0 81 -4
115 -13 123 -8 6 -17 8 -20 4z"/>
<path d="M21563 9664 c5 -124 15 -160 38 -137 7 7 7 44 -1 129 -12 125 -15
134 -32 134 -8 0 -9 -39 -5 -126z"/>
<path d="M21334 9747 c-7 -19 23 -213 38 -240 7 -13 13 -15 22 -8 10 8 8 34
-7 123 -19 112 -39 160 -53 125z"/>
<path d="M21104 9696 c-8 -21 43 -225 62 -245 27 -30 27 20 -1 127 -29 113
-49 150 -61 118z"/>
<path d="M20886 9621 c-7 -11 38 -171 59 -212 16 -31 30 -37 37 -16 6 14 -74
237 -84 237 -4 0 -9 -4 -12 -9z"/>
<path d="M32680 9563 c-35 -55 -39 -83 -10 -83 23 0 82 94 73 116 -10 26 -34
14 -63 -33z"/>
<path d="M20665 9531 c-3 -6 18 -57 46 -116 38 -76 56 -105 68 -103 22 4 21
10 -34 126 -45 94 -64 117 -80 93z"/>
<path d="M20455 9420 c-4 -6 4 -25 17 -43 14 -18 42 -62 62 -99 36 -65 66 -88
66 -50 0 16 -14 40 -85 155 -29 46 -47 57 -60 37z"/>
<path d="M32552 9370 c-34 -41 -39 -72 -12 -78 19 -3 83 85 76 104 -9 24 -30
15 -64 -26z"/>
<path d="M20257 9307 c-5 -13 113 -192 137 -209 18 -12 26 -9 26 10 -1 19
-129 203 -146 209 -6 2 -14 -3 -17 -10z"/>
<path d="M32429 9203 c-65 -73 -64 -72 -45 -91 17 -16 20 -15 57 28 37 43 47
79 24 87 -6 2 -22 -9 -36 -24z"/>
<path d="M20080 9156 c0 -17 147 -196 161 -196 28 0 -8 63 -89 158 -43 51 -72
66 -72 38z"/>
<path d="M32256 9001 c-38 -39 -44 -71 -13 -71 19 0 87 73 87 93 0 29 -34 19
-74 -22z"/>
<path d="M19900 8999 c0 -19 162 -179 182 -179 33 0 18 25 -65 108 -75 75
-117 100 -117 71z"/>
<path d="M32102 8837 c-30 -31 -43 -77 -22 -77 21 0 80 63 80 86 0 33 -20 30
-58 -9z"/>
<path d="M19744 8828 c-12 -18 159 -158 193 -158 19 0 16 23 -4 36 -10 6 -51
39 -91 73 -77 64 -86 68 -98 49z"/>
<path d="M31930 8685 c-44 -33 -53 -50 -35 -65 16 -13 26 -8 74 32 60 51 26
81 -39 33z"/>
<path d="M19600 8645 c0 -17 198 -157 211 -149 22 13 2 35 -88 97 -100 68
-123 78 -123 52z"/>
<path d="M31743 8538 c-44 -33 -57 -68 -25 -68 28 0 102 59 102 81 0 28 -28
23 -77 -13z"/>
<path d="M19480 8446 c0 -8 24 -29 53 -46 28 -17 74 -45 101 -61 48 -30 81
-32 70 -6 -3 8 -24 24 -47 37 -23 13 -64 38 -92 57 -53 35 -85 42 -85 19z"/>
<path d="M31558 8410 c-56 -35 -65 -48 -46 -66 11 -12 21 -9 66 18 50 32 66
60 39 71 -8 3 -34 -8 -59 -23z"/>
<path d="M31358 8284 c-52 -26 -67 -64 -27 -64 36 0 99 43 99 68 0 28 -13 27
-72 -4z"/>
<path d="M19374 8234 c3 -9 6 -18 6 -20 0 -2 4 -4 10 -4 5 0 51 -20 102 -45
89 -44 123 -51 112 -22 -6 16 -191 107 -218 107 -12 0 -16 -5 -12 -16z"/>
<path d="M31150 8177 c-46 -23 -63 -53 -37 -63 24 -9 119 44 115 64 -5 24 -27
24 -78 -1z"/>
<path d="M30923 8080 c-43 -19 -54 -36 -30 -45 21 -9 122 29 122 45 0 22 -43
22 -92 0z"/>
<path d="M28380 8046 c0 -17 46 -42 99 -52 20 -4 30 -1 34 10 9 22 -28 44 -86
52 -40 6 -47 4 -47 -10z"/>
<path d="M19280 8031 c0 -15 23 -27 128 -65 102 -37 152 -42 121 -11 -16 16
-203 85 -230 85 -11 0 -19 -4 -19 -9z"/>
<path d="M30718 8013 c-35 -10 -48 -19 -48 -33 0 -27 12 -31 56 -18 48 14 74
35 67 54 -6 17 -13 16 -75 -3z"/>
<path d="M28613 7993 c-7 -3 -13 -13 -13 -23 0 -14 14 -23 56 -35 31 -9 63
-14 70 -11 15 6 19 32 7 39 -19 12 -109 34 -120 30z"/>
<path d="M30492 7950 c-42 -10 -57 -24 -48 -45 6 -18 9 -18 99 6 28 7 37 15
35 27 -4 20 -37 24 -86 12z"/>
<path d="M28833 7933 c-7 -3 -13 -13 -13 -23 0 -14 11 -22 38 -29 75 -19 102
-17 102 9 0 14 -10 22 -37 29 -67 16 -78 18 -90 14z"/>
<path d="M30275 7904 c-11 -3 -30 -7 -42 -10 -22 -4 -32 -37 -15 -48 4 -2 35
1 67 7 49 10 60 16 60 32 0 21 -28 28 -70 19z"/>
<path d="M29054 7875 c-10 -26 8 -36 75 -42 57 -5 61 -4 61 15 0 27 -4 29 -72
37 -49 6 -59 5 -64 -10z"/>
<path d="M30003 7860 c-27 -11 -30 -36 -5 -44 9 -3 40 -2 67 2 41 6 51 11 53
30 3 20 0 22 -45 21 -26 0 -58 -4 -70 -9z"/>
<path d="M29287 7847 c-9 -24 6 -34 59 -41 57 -7 84 -1 84 20 0 31 -132 49
-143 21z"/>
<path d="M29523 7843 c-20 -7 -15 -31 7 -43 12 -6 42 -10 68 -8 36 2 48 7 50
22 2 10 -2 22 -10 27 -14 9 -95 11 -115 2z"/>
<path d="M29757 7844 c-4 -4 -7 -16 -7 -26 0 -17 7 -19 68 -16 59 3 67 5 67
23 0 17 -8 20 -60 23 -34 2 -64 0 -68 -4z"/>
<path d="M19214 7809 c-11 -18 6 -26 125 -59 79 -21 117 -28 125 -20 17 17 -5
29 -120 60 -126 34 -121 33 -130 19z"/>
<path d="M19165 7580 c-4 -7 -3 -16 2 -21 15 -15 235 -51 246 -40 18 18 -4 29
-95 45 -51 9 -105 19 -120 22 -14 3 -29 0 -33 -6z"/>
<path d="M19130 7347 c0 -21 14 -25 142 -32 75 -5 117 -4 122 3 13 21 -23 30
-141 37 -107 7 -123 6 -123 -8z"/>
<path d="M19125 7120 c-15 -24 12 -30 129 -30 67 0 126 3 129 7 4 3 2 12 -4
20 -14 16 -244 19 -254 3z"/>
<path d="M19222 6900 c-72 -6 -105 -21 -86 -39 12 -11 234 7 251 21 34 27 -12
32 -165 18z"/>
<path d="M19280 6688 c-108 -20 -132 -30 -113 -49 7 -7 45 -4 128 10 65 11
120 23 123 25 8 9 -7 36 -20 35 -7 -1 -60 -10 -118 -21z"/>
<path d="M19331 6465 c-109 -29 -136 -44 -111 -60 11 -7 200 39 233 56 20 11
22 25 5 31 -7 3 -64 -9 -127 -27z"/>
<path d="M19401 6250 c-113 -42 -134 -56 -112 -69 9 -6 38 0 80 15 36 14 86
32 111 41 46 17 62 31 54 45 -8 13 -23 9 -133 -32z"/>
<path d="M19480 6047 c-157 -78 -147 -111 12 -38 88 41 122 66 113 82 -9 13
-10 13 -125 -44z"/>
<path d="M19644 5886 c-38 -22 -98 -60 -141 -91 -13 -9 -23 -20 -23 -25 0 -20
37 -9 90 26 30 19 71 44 91 54 20 11 39 26 42 34 10 24 -18 25 -59 2z"/>
<path d="M19695 5655 c-87 -63 -114 -95 -80 -95 22 0 205 130 205 147 0 26
-36 11 -125 -52z"/>
<path d="M19875 5509 c-28 -23 -69 -55 -92 -71 -24 -16 -43 -35 -43 -43 0 -20
34 -19 51 1 7 9 33 29 58 46 61 41 101 79 101 95 0 23 -24 14 -75 -28z"/>
<path d="M19970 5270 c-90 -57 -113 -81 -92 -94 5 -3 49 20 98 51 96 60 124
81 124 95 0 20 -42 3 -130 -52z"/>
<path d="M20070 5115 c-47 -29 -91 -58 -97 -65 -18 -15 -16 -30 3 -30 23 0
211 117 218 135 11 30 -39 13 -124 -40z"/>
<path d="M20075 4935 c-5 -2 -56 -18 -112 -35 -69 -21 -103 -36 -103 -45 0
-22 24 -19 141 16 103 31 129 46 106 61 -13 8 -16 8 -32 3z"/>
<path d="M20632 4778 c-36 -118 -45 -169 -33 -181 17 -17 26 0 54 113 31 121
32 130 12 130 -9 0 -21 -23 -33 -62z"/>
<path d="M20940 4791 c-31 -62 -64 -191 -51 -204 7 -7 12 -6 16 4 3 8 22 59
43 115 21 55 36 106 34 112 -7 22 -21 12 -42 -27z"/>
<path d="M21155 4758 c-16 -51 -55 -210 -55 -227 0 -23 13 -27 27 -8 11 14 63
205 63 230 0 20 -29 23 -35 5z"/>
<path d="M20446 4626 c-49 -111 -56 -139 -30 -134 16 3 103 188 104 221 0 9
-6 17 -14 17 -7 0 -34 -45 -60 -104z"/>
<path d="M21372 4713 c-15 -27 -45 -221 -38 -240 14 -35 34 13 53 125 15 89
17 115 7 123 -9 7 -15 5 -22 -8z"/>
<path d="M21575 4690 c-4 -7 -10 -68 -13 -137 -4 -104 -3 -125 9 -121 17 6 26
56 30 172 3 61 0 90 -8 93 -6 2 -14 -1 -18 -7z"/>
<path d="M22008 4688 c-3 -7 0 -67 6 -133 9 -95 14 -120 26 -120 13 0 14 17
12 101 -2 56 -7 114 -11 130 -8 30 -26 42 -33 22z"/>
<path d="M21797 4683 c-12 -11 -8 -251 4 -259 21 -13 29 21 29 132 0 81 -4
115 -13 123 -8 6 -17 8 -20 4z"/>
<path d="M27180 2055 c74 -71 218 -211 320 -312 102 -100 203 -195 225 -212
22 -16 173 -159 335 -317 162 -159 313 -303 336 -321 l41 -32 20 27 c48 66
165 283 157 291 -5 5 -110 73 -234 151 -124 79 -234 151 -245 160 -11 10 -46
32 -79 50 -69 37 -438 270 -546 345 -61 42 -328 214 -440 283 -14 9 36 -42
110 -113z m546 -385 c86 -56 177 -112 203 -124 25 -13 98 -59 161 -101 63 -42
189 -125 280 -182 91 -58 166 -107 168 -108 5 -4 -113 -204 -120 -202 -3 1
-139 132 -302 291 -162 159 -304 294 -314 300 -21 12 -247 226 -238 226 3 0
76 -45 162 -100z"/>
</g>
</svg>
